<svg xmlns="http://www.w3.org/2000/svg" width="85" height="85" viewBox="0 0 85 85">
  <g id="Grupo_1107901" data-name="Grupo 1107901" transform="translate(-180.051 -2274)">
    <rect id="Rectángulo_402638" data-name="Rectángulo 402638" width="85" height="85" transform="translate(180.051 2274)" fill="#ffdb52"/>
    <g id="Grupo_1107900" data-name="Grupo 1107900" transform="translate(194.04 2288)">
      <path id="Trazado_899347" data-name="Trazado 899347" d="M84.99,62.443H40.231a1.658,1.658,0,0,1-1.658-1.658V9.158A1.658,1.658,0,0,1,40.231,7.5H84.99a1.658,1.658,0,0,1,1.658,1.658V60.785A1.658,1.658,0,0,1,84.99,62.443Z" transform="translate(-34.299 -6.671)" fill="#eaf9fa"/>
      <path id="Trazado_899348" data-name="Trazado 899348" d="M84.99,7.5h-.442V59.68a.553.553,0,0,1-.553.553H38.573v.553a1.658,1.658,0,0,0,1.658,1.658H84.99a1.658,1.658,0,0,0,1.658-1.658V9.158A1.658,1.658,0,0,0,84.99,7.5Z" transform="translate(-34.299 -6.671)" fill="#d4f2f6"/>
      <g id="Grupo_1107899" data-name="Grupo 1107899" transform="translate(0.84 5.121)">
        <path id="Trazado_899349" data-name="Trazado 899349" d="M12.721,51.478H9.169A1.658,1.658,0,0,1,7.511,49.82V47.985a1.658,1.658,0,0,1,1.658-1.658h3.551a1.658,1.658,0,0,1,1.658,1.658V49.82A1.658,1.658,0,0,1,12.721,51.478Z" transform="translate(-7.511 -46.327)" fill="#9857bd"/>
        <path id="Trazado_899350" data-name="Trazado 899350" d="M12.721,144.665H9.169a1.658,1.658,0,0,1-1.658-1.658v-1.834a1.658,1.658,0,0,1,1.658-1.658h3.551a1.658,1.658,0,0,1,1.658,1.658v1.834A1.658,1.658,0,0,1,12.721,144.665Z" transform="translate(-7.511 -129.212)" fill="#9857bd"/>
        <path id="Trazado_899351" data-name="Trazado 899351" d="M12.721,237.853H9.169a1.658,1.658,0,0,1-1.658-1.658V234.36A1.658,1.658,0,0,1,9.169,232.7h3.551a1.658,1.658,0,0,1,1.658,1.658v1.834A1.658,1.658,0,0,1,12.721,237.853Z" transform="translate(-7.511 -212.098)" fill="#9857bd"/>
        <path id="Trazado_899352" data-name="Trazado 899352" d="M12.721,331.041H9.169a1.658,1.658,0,0,1-1.658-1.658v-1.834a1.658,1.658,0,0,1,1.658-1.658h3.551a1.658,1.658,0,0,1,1.658,1.658v1.834A1.658,1.658,0,0,1,12.721,331.041Z" transform="translate(-7.511 -294.984)" fill="#9857bd"/>
        <path id="Trazado_899353" data-name="Trazado 899353" d="M12.721,424.228H9.169a1.658,1.658,0,0,1-1.658-1.658v-1.834a1.658,1.658,0,0,1,1.658-1.658h3.551a1.658,1.658,0,0,1,1.658,1.658v1.834A1.658,1.658,0,0,1,12.721,424.228Z" transform="translate(-7.511 -377.869)" fill="#9857bd"/>
      </g>
      <path id="Trazado_899354" data-name="Trazado 899354" d="M12.721,325.89h-.553v2.387a.553.553,0,0,1-.553.553h-4.1v.553a1.658,1.658,0,0,0,1.658,1.658h3.551a1.658,1.658,0,0,0,1.658-1.658v-1.834A1.658,1.658,0,0,0,12.721,325.89Z" transform="translate(-6.671 -289.863)" fill="#814aa0"/>
      <path id="Trazado_899355" data-name="Trazado 899355" d="M12.721,232.7h-.553v2.387a.553.553,0,0,1-.553.553h-4.1v.553a1.658,1.658,0,0,0,1.658,1.658h3.551a1.658,1.658,0,0,0,1.658-1.658V234.36A1.658,1.658,0,0,0,12.721,232.7Z" transform="translate(-6.671 -206.977)" fill="#814aa0"/>
      <path id="Trazado_899356" data-name="Trazado 899356" d="M12.721,419.077h-.553v2.387a.553.553,0,0,1-.553.553h-4.1v.553a1.658,1.658,0,0,0,1.658,1.658h3.551a1.658,1.658,0,0,0,1.658-1.658v-1.834A1.658,1.658,0,0,0,12.721,419.077Z" transform="translate(-6.671 -372.748)" fill="#814aa0"/>
      <path id="Trazado_899357" data-name="Trazado 899357" d="M12.721,46.327h-.553v2.387a.553.553,0,0,1-.553.553h-4.1v.553a1.658,1.658,0,0,0,1.658,1.658h3.551a1.658,1.658,0,0,0,1.658-1.658V47.985A1.658,1.658,0,0,0,12.721,46.327Z" transform="translate(-6.671 -41.206)" fill="#814aa0"/>
      <path id="Trazado_899358" data-name="Trazado 899358" d="M12.721,139.515h-.553V141.9a.553.553,0,0,1-.553.553h-4.1v.553a1.658,1.658,0,0,0,1.658,1.658h3.551a1.658,1.658,0,0,0,1.658-1.658v-1.834A1.658,1.658,0,0,0,12.721,139.515Z" transform="translate(-6.671 -124.092)" fill="#814aa0"/>
      <path id="Trazado_899359" data-name="Trazado 899359" d="M117.315,71.263H101.251a.553.553,0,0,1-.553-.553V54.646a.553.553,0,0,1,.553-.553h16.064a.553.553,0,0,1,.553.553V70.71A.553.553,0,0,1,117.315,71.263Z" transform="translate(-89.556 -48.113)" fill="#e94444"/>
      <path id="Trazado_899360" data-name="Trazado 899360" d="M117.315,288.7H101.251a.553.553,0,0,1-.553-.553V272.083a.553.553,0,0,1,.553-.553h16.064a.553.553,0,0,1,.553.553v16.064A.553.553,0,0,1,117.315,288.7Z" transform="translate(-89.556 -241.512)" fill="#2ed1e2"/>
      <path id="Trazado_899361" data-name="Trazado 899361" d="M303.69,71.263H287.626a.553.553,0,0,1-.553-.553V54.646a.553.553,0,0,1,.553-.553H303.69a.553.553,0,0,1,.553.553V70.71A.553.553,0,0,1,303.69,71.263Z" transform="translate(-255.327 -48.113)" fill="#ffc344"/>
      <path id="Trazado_899362" data-name="Trazado 899362" d="M303.69,288.7H287.626a.553.553,0,0,1-.553-.553V272.083a.553.553,0,0,1,.553-.553H303.69a.553.553,0,0,1,.553.553v16.064A.553.553,0,0,1,303.69,288.7Z" transform="translate(-255.327 -241.512)" fill="#9857bd"/>
      <path id="Trazado_899363" data-name="Trazado 899363" d="M117.315,54.093h-1.658V68.5a.553.553,0,0,1-.553.553H100.7V70.71a.553.553,0,0,0,.553.553h16.064a.553.553,0,0,0,.553-.553V54.646A.553.553,0,0,0,117.315,54.093Z" transform="translate(-89.556 -48.113)" fill="#d83131"/>
      <path id="Trazado_899364" data-name="Trazado 899364" d="M117.315,271.53h-1.658v14.406a.553.553,0,0,1-.553.553H100.7v1.658a.553.553,0,0,0,.553.553h16.064a.553.553,0,0,0,.553-.553V272.083A.553.553,0,0,0,117.315,271.53Z" transform="translate(-89.556 -241.512)" fill="#03bed7"/>
      <path id="Trazado_899365" data-name="Trazado 899365" d="M303.69,54.093h-1.658V68.5a.553.553,0,0,1-.553.553H287.073V70.71a.553.553,0,0,0,.553.553H303.69a.553.553,0,0,0,.553-.553V54.646A.553.553,0,0,0,303.69,54.093Z" transform="translate(-255.327 -48.113)" fill="#feb237"/>
      <path id="Trazado_899366" data-name="Trazado 899366" d="M303.69,271.53h-1.658v14.406a.553.553,0,0,1-.553.553H287.073v1.658a.553.553,0,0,0,.553.553H303.69a.553.553,0,0,0,.553-.553V272.083A.553.553,0,0,0,303.69,271.53Z" transform="translate(-255.327 -241.512)" fill="#814aa0"/>
      <path id="Trazado_899367" data-name="Trazado 899367" d="M136.911,85.155a5.151,5.151,0,1,0,5.151,5.151A5.151,5.151,0,0,0,136.911,85.155Zm0,6.868a1.717,1.717,0,1,1,1.717-1.717A1.717,1.717,0,0,1,136.911,92.023Z" transform="translate(-117.184 -75.741)" fill="#ffc344"/>
      <path id="Trazado_899368" data-name="Trazado 899368" d="M325.306,302.593h-4.038a.276.276,0,0,0-.2.081l-2.856,2.855a.276.276,0,0,0-.081.2v4.038a.276.276,0,0,0,.081.2l2.856,2.855a.276.276,0,0,0,.2.081h4.038a.276.276,0,0,0,.2-.081l2.855-2.855a.276.276,0,0,0,.081-.2v-4.038a.276.276,0,0,0-.081-.2l-2.855-2.855A.276.276,0,0,0,325.306,302.593Z" transform="translate(-282.956 -269.141)" fill="#e94444"/>
      <path id="Trazado_899369" data-name="Trazado 899369" d="M372.046,350.9l-3.431,1.716-3.357-3.357a1.749,1.749,0,0,0-2.4-.092,1.717,1.717,0,0,0-.06,2.485l5.243,5.243a.276.276,0,0,1-.2.472h-1.151a2.211,2.211,0,0,0-2.211,2.211v.67a.553.553,0,0,0,.553.553h8.835v0a4.292,4.292,0,0,0,2.888-7.325l-2.16-2.16a2.211,2.211,0,0,0-2.552-.414Z" transform="translate(-322.232 -310.184)" fill="#ffe5c2"/>
      <path id="Trazado_899370" data-name="Trazado 899370" d="M394.369,383.94l-.955-.955v3.99a2.08,2.08,0,0,1-2.008,2.08h-9.08a2.2,2.2,0,0,0-.233.988v.67a.553.553,0,0,0,.553.553h8.835v0a4.292,4.292,0,0,0,2.888-7.325Z" transform="translate(-339.843 -340.646)" fill="#fed2a4"/>
      <path id="Trazado_899371" data-name="Trazado 899371" d="M112.026,47.975a1.383,1.383,0,0,0-1.382-1.382h-8.675a.829.829,0,1,0,0,1.658h8.4V63.763H94.856V48.251H98.21a.829.829,0,0,0,0-1.658H94.58A1.383,1.383,0,0,0,93.2,47.975V64.039a1.383,1.383,0,0,0,1.382,1.382h16.064a1.383,1.383,0,0,0,1.382-1.382V47.975Z" transform="translate(-82.885 -41.442)"/>
      <path id="Trazado_899372" data-name="Trazado 899372" d="M112.026,265.412a1.383,1.383,0,0,0-1.382-1.382H94.58a1.383,1.383,0,0,0-1.382,1.382v16.064a1.383,1.383,0,0,0,1.382,1.382h8.937a.829.829,0,1,0,0-1.658H94.856V265.688h15.511V281.2h-3.092a.829.829,0,1,0,0,1.658h3.369a1.383,1.383,0,0,0,1.382-1.382V265.412Z" transform="translate(-82.885 -234.841)"/>
      <path id="Trazado_899373" data-name="Trazado 899373" d="M298.4,47.975a1.383,1.383,0,0,0-1.382-1.382H280.955a1.383,1.383,0,0,0-1.382,1.382V64.039a1.383,1.383,0,0,0,1.382,1.382h16.064a1.383,1.383,0,0,0,1.382-1.382V47.975Zm-1.658,15.788H281.231V48.251h15.511V63.763Z" transform="translate(-248.656 -41.442)"/>
      <path id="Trazado_899374" data-name="Trazado 899374" d="M166.454,232.968h-10.3a.829.829,0,1,0,0,1.658h10.3a.829.829,0,0,0,0-1.658Z" transform="translate(-138.142 -207.213)"/>
      <path id="Trazado_899375" data-name="Trazado 899375" d="M97.462,234.626a.829.829,0,1,0,0-1.658H94.028a.829.829,0,1,0,0,1.658Z" transform="translate(-82.886 -207.213)"/>
      <path id="Trazado_899376" data-name="Trazado 899376" d="M342.527,232.968a.829.829,0,1,0,0,1.658h10.3a.829.829,0,1,0,0-1.658Z" transform="translate(-303.914 -207.213)"/>
      <path id="Trazado_899377" data-name="Trazado 899377" d="M280.4,232.968a.829.829,0,1,0,0,1.658h3.434a.829.829,0,1,0,0-1.658Z" transform="translate(-248.656 -207.213)"/>
      <path id="Trazado_899378" data-name="Trazado 899378" d="M155.323,451.234a.829.829,0,0,0,.829.829h10.3a.829.829,0,0,0,0-1.658h-10.3A.829.829,0,0,0,155.323,451.234Z" transform="translate(-138.142 -400.613)"/>
      <path id="Trazado_899379" data-name="Trazado 899379" d="M94.027,450.4a.829.829,0,0,0,0,1.658h3.434a.829.829,0,0,0,0-1.658Z" transform="translate(-82.885 -400.613)"/>
      <path id="Trazado_899380" data-name="Trazado 899380" d="M283.837,452.063a.829.829,0,0,0,0-1.658H280.4a.829.829,0,0,0,0,1.658Z" transform="translate(-248.657 -400.613)"/>
      <path id="Trazado_899381" data-name="Trazado 899381" d="M157.869,113.81a2.546,2.546,0,1,0-2.546-2.546A2.549,2.549,0,0,0,157.869,113.81Zm0-3.434a.888.888,0,1,1-.888.888A.889.889,0,0,1,157.869,110.376Z" transform="translate(-138.142 -96.699)"/>
      <path id="Trazado_899382" data-name="Trazado 899382" d="M124.261,83.635a5.98,5.98,0,1,0,5.98-5.98A5.987,5.987,0,0,0,124.261,83.635Zm5.98-4.322a4.322,4.322,0,1,1-4.322,4.322A4.327,4.327,0,0,1,130.241,79.313Z" transform="translate(-110.514 -69.07)"/>
      <path id="Trazado_899383" data-name="Trazado 899383" d="M316.874,145.509A6.746,6.746,0,0,0,322.7,142.6a.829.829,0,0,0-1.414-.866,5.647,5.647,0,0,1-8.823,0,.829.829,0,0,0-1.414.866A6.745,6.745,0,0,0,316.874,145.509Z" transform="translate(-276.543 -125.709)"/>
      <path id="Trazado_899384" data-name="Trazado 899384" d="M375.142,99.952a.829.829,0,0,0,.829-.829V96.605a.829.829,0,1,0-1.658,0v2.518A.829.829,0,0,0,375.142,99.952Z" transform="translate(-332.923 -85.188)"/>
      <path id="Trazado_899385" data-name="Trazado 899385" d="M340.975,99.952a.829.829,0,0,0,.829-.829V96.605a.829.829,0,0,0-1.658,0v2.518A.829.829,0,0,0,340.975,99.952Z" transform="translate(-302.533 -85.188)"/>
      <path id="Trazado_899386" data-name="Trazado 899386" d="M154.094,301.672a.626.626,0,0,1,.375-.585,3.12,3.12,0,1,0-4.323-2.877.829.829,0,1,0,1.658,0,1.494,1.494,0,0,1,.014-.2,1.46,1.46,0,0,1,1.447-1.256h.033a1.46,1.46,0,0,1,.529,2.808,2.281,2.281,0,0,0-1.392,2.114v1.117a.829.829,0,1,0,1.658,0v-1.117Z" transform="translate(-133.538 -262.47)"/>
      <circle id="Elipse_11511" data-name="Elipse 11511" cx="0.829" cy="0.829" r="0.829" transform="translate(18.898 42.924)"/>
      <path id="Trazado_899387" data-name="Trazado 899387" d="M55.113,42.707l-1.934-1.934V28.452a.829.829,0,1,0-1.658,0v11.29a3.033,3.033,0,0,0-1.776.105V30.57a1.383,1.383,0,0,0-1.382-1.382H32.3a1.383,1.383,0,0,0-1.382,1.382V46.635A1.383,1.383,0,0,0,32.3,48.017h9.455a3.022,3.022,0,0,0-.333,1.382v.394H38.614a.829.829,0,0,0,0,1.658H51.52v2.664a.83.83,0,0,1-.829.829H5.932a.83.83,0,0,1-.829-.829V52.309H6.05a2.49,2.49,0,0,0,2.487-2.487V47.987A2.49,2.49,0,0,0,6.05,45.5H5.1V42.007H6.05A2.49,2.49,0,0,0,8.537,39.52V37.685A2.49,2.49,0,0,0,6.05,35.2H5.1V31.705H6.05a2.49,2.49,0,0,0,2.487-2.487V27.383A2.49,2.49,0,0,0,6.05,24.9H5.1V21.4H6.05a2.49,2.49,0,0,0,2.487-2.487V17.082A2.49,2.49,0,0,0,6.05,14.594H5.1V11.1H6.05A2.49,2.49,0,0,0,8.537,8.614V6.78A2.49,2.49,0,0,0,6.05,4.292H5.1v-1.8a.83.83,0,0,1,.829-.829H50.691a.83.83,0,0,1,.829.829V24.472a.829.829,0,0,0,1.658,0V2.487A2.49,2.49,0,0,0,50.691,0H5.932A2.49,2.49,0,0,0,3.445,2.487v1.8H2.5A2.49,2.49,0,0,0,.011,6.78V8.614A2.49,2.49,0,0,0,2.5,11.1h.947v3.493H2.5A2.49,2.49,0,0,0,.011,17.082v1.834A2.49,2.49,0,0,0,2.5,21.4h.947V24.9H2.5A2.49,2.49,0,0,0,.011,27.384v1.834A2.49,2.49,0,0,0,2.5,31.705h.947V35.2H2.5A2.49,2.49,0,0,0,.011,37.686V39.52A2.49,2.49,0,0,0,2.5,42.007h.947V45.5H2.5A2.49,2.49,0,0,0,.011,47.987v1.834A2.49,2.49,0,0,0,2.5,52.309h.947v1.8A2.49,2.49,0,0,0,5.932,56.6H50.691a2.49,2.49,0,0,0,2.487-2.487V51.166a5.124,5.124,0,0,0,1.934-8.459ZM1.669,8.614V6.78A.83.83,0,0,1,2.5,5.951H6.05a.83.83,0,0,1,.829.829V8.614a.83.83,0,0,1-.829.829H2.5A.83.83,0,0,1,1.669,8.614Zm0,10.3V17.082a.83.83,0,0,1,.829-.829H6.05a.83.83,0,0,1,.829.829v1.834a.83.83,0,0,1-.829.829H2.5A.83.83,0,0,1,1.669,18.916Zm0,10.3V27.383a.83.83,0,0,1,.829-.829H6.05a.83.83,0,0,1,.829.829v1.834a.83.83,0,0,1-.829.829H2.5A.83.83,0,0,1,1.669,29.218Zm0,10.3V37.685a.83.83,0,0,1,.829-.829H6.05a.83.83,0,0,1,.829.829V39.52a.83.83,0,0,1-.829.829H2.5A.83.83,0,0,1,1.669,39.52Zm0,10.3V47.987a.83.83,0,0,1,.829-.829H6.05a.83.83,0,0,1,.829.829v1.834a.83.83,0,0,1-.829.829H2.5A.83.83,0,0,1,1.669,49.822ZM32.575,30.847H48.086v9.81l-1.54.77-.339-.339a1.1,1.1,0,0,0,.1-.466V36.584a1.1,1.1,0,0,0-.324-.782l-2.855-2.855a1.1,1.1,0,0,0-.782-.324H38.311a1.1,1.1,0,0,0-.782.324L34.674,35.8a1.1,1.1,0,0,0-.324.782v4.038a1.1,1.1,0,0,0,.324.782l2.855,2.855a1.1,1.1,0,0,0,.782.324H42.35a1.113,1.113,0,0,0,.143-.009l1.79,1.79c-.1.006-.193.016-.288.031a.83.83,0,0,0-.242-.036H32.575Zm7.4,11.212.865.865h-2.3l-2.532-2.532v-3.58l2.532-2.532h3.58l2.532,2.532v2.72l-1.039-1.039a2.568,2.568,0,0,0-3.547-.119,2.526,2.526,0,0,0-.833,1.825,2.557,2.557,0,0,0,.745,1.86ZM53.94,48.778a3.449,3.449,0,0,1-2.33,1.012l-.037,0H43.079V49.4a1.383,1.383,0,0,1,1.382-1.382h1.15a1.106,1.106,0,0,0,.782-1.887L41.15,40.886a.888.888,0,0,1,.032-1.286.923.923,0,0,1,1.258.065l5.282,5.282a.829.829,0,0,0,1.173-1.172l-1.112-1.112,2.4-1.2a1.381,1.381,0,0,1,1.6.259l2.16,2.16a3.467,3.467,0,0,1,0,4.9Z"/>
    </g>
  </g>
</svg>
