<svg xmlns="http://www.w3.org/2000/svg" width="190" height="68.727" viewBox="0 0 190 68.727">
  <g id="Grupo_1107898" data-name="Grupo 1107898" transform="translate(-1230.051 -2922)">
    <rect id="Rect치ngulo_402642" data-name="Rect치ngulo 402642" width="190" height="40" transform="translate(1230.051 2922)" fill="#f6bcdd"/>
    <g id="Rect치ngulo_402647" data-name="Rect치ngulo 402647" transform="translate(1245.051 2936)" fill="none" stroke="#f6bcdd" stroke-width="3">
      <rect width="160" height="40" stroke="none"/>
      <rect x="-1.5" y="-1.5" width="163" height="43" fill="none"/>
    </g>
    <g id="Grupo_1107897" data-name="Grupo 1107897" transform="translate(1279.051 2857.238)">
      <g id="Grupo_1107892" data-name="Grupo 1107892" transform="translate(1.348 66.109)">
        <g id="Grupo_1107883" data-name="Grupo 1107883">
          <g id="Grupo_1107869" data-name="Grupo 1107869" transform="translate(84.852 10.875)">
            <path id="Trazado_899306" data-name="Trazado 899306" d="M483.273,132.784h-2.115a8.879,8.879,0,0,1-1.439,3.968l0-.005V187.94h3.551a.9.9,0,0,0,.9-.9V133.682A.9.9,0,0,0,483.273,132.784Z" transform="translate(-479.719 -132.784)" fill="#fff"/>
          </g>
          <path id="Trazado_899307" data-name="Trazado 899307" d="M275.762,141.878a13.567,13.567,0,0,1-4.56-.778l-3.759,2.831L268,139.4a9.547,9.547,0,0,1-3.956-6.611h-15.12a5.3,5.3,0,0,0-5.3,5.3V187.94h42.428V136.747A12.231,12.231,0,0,1,275.762,141.878Z" transform="translate(-201.191 -121.909)" fill="#fff3de"/>
          <g id="Grupo_1107870" data-name="Grupo 1107870" transform="translate(42.428 10.875)">
            <path id="Trazado_899308" data-name="Trazado 899308" d="M256.178,132.784h-7.256a5.3,5.3,0,0,0-5.3,5.3V187.94h7.256V138.087A5.3,5.3,0,0,1,256.178,132.784Z" transform="translate(-243.619 -132.784)" fill="#ffe5c2"/>
          </g>
          <g id="Grupo_1107880" data-name="Grupo 1107880" transform="translate(46.92)">
            <path id="Trazado_899309" data-name="Trazado 899309" d="M296.269,162.385a13.567,13.567,0,0,1-4.56-.778l-3.759,2.831.556-4.537a10.72,10.72,0,0,1-2.145-2.119H269.43a.812.812,0,0,0-.811.811v11.338h33.443v-8.842a13.368,13.368,0,0,1-5.793,1.294Z" transform="translate(-268.619 -142.416)" fill="#ffd15b"/>
            <g id="Grupo_1107871" data-name="Grupo 1107871" transform="translate(0 15.367)">
              <path id="Trazado_899310" data-name="Trazado 899310" d="M275.428,157.784h-6a.812.812,0,0,0-.811.811v11.338h6V158.6A.812.812,0,0,1,275.428,157.784Z" transform="translate(-268.619 -157.784)" fill="#fdb441"/>
            </g>
            <g id="Grupo_1107872" data-name="Grupo 1107872" transform="translate(15.881)">
              <path id="Trazado_899311" data-name="Trazado 899311" d="M368.77,72.261c-6.5,0-11.77,4.47-11.77,9.985a9.4,9.4,0,0,0,4.007,7.5l-.556,4.537,3.759-2.831a13.568,13.568,0,0,0,4.56.778c6.5,0,11.77-4.47,11.77-9.985S375.27,72.261,368.77,72.261Z" transform="translate(-357 -72.261)" fill="#d8ecfe"/>
            </g>
            <g id="Grupo_1107873" data-name="Grupo 1107873" transform="translate(15.881 0.687)">
              <path id="Trazado_899312" data-name="Trazado 899312" d="M373.082,92.879c-6.5,0-11.77-4.47-11.77-9.985a9.2,9.2,0,0,1,3.169-6.813C360.1,77.537,357,81.15,357,85.38a9.4,9.4,0,0,0,4.007,7.5l-.556,4.537,3.759-2.831a13.568,13.568,0,0,0,4.56.778,12.789,12.789,0,0,0,8.6-3.172A13.6,13.6,0,0,1,373.082,92.879Z" transform="translate(-357 -76.082)" fill="#c4e2ff"/>
            </g>
            <g id="Grupo_1107874" data-name="Grupo 1107874" transform="translate(15.342 32.009)">
              <path id="Trazado_899313" data-name="Trazado 899313" d="M354,250.4h18.1v11.835H354Z" transform="translate(-354 -250.398)" fill="#fe7701"/>
            </g>
            <g id="Grupo_1107875" data-name="Grupo 1107875" transform="translate(15.342 32.009)">
              <path id="Trazado_899314" data-name="Trazado 899314" d="M354,250.4h6.109v11.835H354Z" transform="translate(-354 -250.398)" fill="#f46700"/>
            </g>
            <g id="Grupo_1107876" data-name="Grupo 1107876" transform="translate(0 48.336)">
              <path id="Trazado_899315" data-name="Trazado 899315" d="M268.619,341.261h33.443v13.2H268.619Z" transform="translate(-268.619 -341.261)" fill="#0593fc"/>
            </g>
            <g id="Grupo_1107877" data-name="Grupo 1107877" transform="translate(0 48.336)">
              <path id="Trazado_899316" data-name="Trazado 899316" d="M268.619,341.261h6v13.2h-6Z" transform="translate(-268.619 -341.261)" fill="#0182fc"/>
            </g>
            <g id="Grupo_1107878" data-name="Grupo 1107878" transform="translate(0 32.009)">
              <path id="Trazado_899317" data-name="Trazado 899317" d="M268.619,250.4h10.85v11.835h-10.85Z" transform="translate(-268.619 -250.398)" fill="#97d729"/>
            </g>
            <g id="Grupo_1107879" data-name="Grupo 1107879" transform="translate(0 32.009)">
              <path id="Trazado_899318" data-name="Trazado 899318" d="M268.619,250.4h6.109v11.835h-6.109Z" transform="translate(-268.619 -250.398)" fill="#8bc727"/>
            </g>
          </g>
          <g id="Grupo_1107881" data-name="Grupo 1107881" transform="translate(0 10.875)">
            <path id="Trazado_899319" data-name="Trazado 899319" d="M49.928,187.94H8.4a.9.9,0,0,1-.9-.9V133.682a.9.9,0,0,1,.9-.9H44.624a5.3,5.3,0,0,1,5.3,5.3Z" transform="translate(-7.5 -132.784)" fill="#fff3de"/>
          </g>
          <g id="Grupo_1107882" data-name="Grupo 1107882" transform="translate(0 10.875)">
            <path id="Trazado_899320" data-name="Trazado 899320" d="M13.52,187.042V133.682a.9.9,0,0,1,.9-.9H8.4a.9.9,0,0,0-.9.9v53.359a.9.9,0,0,0,.9.9h6.02A.9.9,0,0,1,13.52,187.042Z" transform="translate(-7.5 -132.784)" fill="#ffe5c2"/>
          </g>
        </g>
        <g id="Grupo_1107884" data-name="Grupo 1107884" transform="translate(65.459 54.266)">
          <path id="Trazado_899321" data-name="Trazado 899321" d="M371.8,381.534h14.9V375a11.686,11.686,0,0,0-14.9,6.537Z" transform="translate(-371.796 -374.261)" fill="#97d729"/>
        </g>
        <g id="Grupo_1107885" data-name="Grupo 1107885" transform="translate(65.459 54.266)">
          <path id="Trazado_899322" data-name="Trazado 899322" d="M385.6,374.65a11.678,11.678,0,0,0-13.8,6.885h5.977A11.705,11.705,0,0,1,385.6,374.65Z" transform="translate(-371.796 -374.261)" fill="#8bc727"/>
        </g>
        <g id="Grupo_1107891" data-name="Grupo 1107891" transform="translate(4.492 15.367)">
          <g id="Grupo_1107886" data-name="Grupo 1107886">
            <path id="Trazado_899323" data-name="Trazado 899323" d="M32.5,157.784H49.48v12.149H32.5Z" transform="translate(-32.5 -157.784)" fill="#fd4755"/>
          </g>
          <g id="Grupo_1107887" data-name="Grupo 1107887">
            <path id="Trazado_899324" data-name="Trazado 899324" d="M32.5,157.784h6.109v12.149H32.5Z" transform="translate(-32.5 -157.784)" fill="#fb2b3a"/>
          </g>
          <g id="Grupo_1107888" data-name="Grupo 1107888" transform="translate(21.473)">
            <path id="Trazado_899325" data-name="Trazado 899325" d="M152,169.933h11.971V158.6a.812.812,0,0,0-.811-.811H152Z" transform="translate(-152 -157.784)" fill="#0593fc"/>
          </g>
          <g id="Grupo_1107889" data-name="Grupo 1107889" transform="translate(21.473)">
            <path id="Trazado_899326" data-name="Trazado 899326" d="M152,157.784h6.109v12.149H152Z" transform="translate(-152 -157.784)" fill="#0182fc"/>
          </g>
          <path id="Trazado_899327" data-name="Trazado 899327" d="M32.5,250.4v11.835h4.224l-.072-.087a.619.619,0,0,1,.323-.993l3.64-.939a.619.619,0,0,0,.463-.637l-.232-3.752a.619.619,0,0,1,.845-.614l3.5,1.38a.619.619,0,0,0,.749-.243l2.018-3.171a.619.619,0,0,1,1.044,0l2.018,3.171a.619.619,0,0,0,.749.243l3.5-1.38a.619.619,0,0,1,.845.614l-.232,3.752a.619.619,0,0,0,.463.637l3.64.939a.619.619,0,0,1,.323.993l-.072.087h5.716V250.4Z" transform="translate(-32.5 -233.756)" fill="#97d729"/>
          <g id="Grupo_1107890" data-name="Grupo 1107890" transform="translate(0 16.642)">
            <path id="Trazado_899328" data-name="Trazado 899328" d="M32.5,250.4h6.02v11.835H32.5Z" transform="translate(-32.5 -250.398)" fill="#8bc727"/>
          </g>
          <path id="Trazado_899329" data-name="Trazado 899329" d="M41.69,350.2a.619.619,0,0,1-.845-.614l.232-3.752a.619.619,0,0,0-.463-.637l-3.64-.939a.619.619,0,0,1-.323-.993l1.656-2.006H32.5v13.2H43.73V349.4Z" transform="translate(-32.5 -308.292)" fill="#fff"/>
          <path id="Trazado_899330" data-name="Trazado 899330" d="M36.975,344.261a.619.619,0,0,1-.323-.993l1.656-2.006H32.5v13.2h6.109v-9.782Z" transform="translate(-32.5 -308.293)" fill="#eaf6ff"/>
          <path id="Trazado_899331" data-name="Trazado 899331" d="M130.421,341.261l1.656,2.006a.619.619,0,0,1-.323.993l-3.64.939a.619.619,0,0,0-.463.637l.232,3.752a.619.619,0,0,1-.845.614l-3.5-1.38a.619.619,0,0,0-.749.243l-2.018,3.171a.616.616,0,0,1-.775.229v2h17.721v-13.2Z" transform="translate(-104.277 -308.292)" fill="#fd4755"/>
          <path id="Trazado_899332" data-name="Trazado 899332" d="M123.542,383.142a.619.619,0,0,0-.749.243l-2.018,3.171a.616.616,0,0,1-.775.229v2h6.109v-4.629Z" transform="translate(-104.277 -342.613)" fill="#fb2b3a"/>
        </g>
      </g>
      <g id="Grupo_1107895" data-name="Grupo 1107895" transform="translate(9.85 100.609)">
        <g id="Grupo_1107893" data-name="Grupo 1107893" transform="translate(0)">
          <path id="Trazado_899333" data-name="Trazado 899333" d="M67.3,264.548l2.018,3.171a.619.619,0,0,0,.749.243l3.5-1.38a.619.619,0,0,1,.845.614l-.232,3.752a.619.619,0,0,0,.463.637l3.64.939a.619.619,0,0,1,.323.993l-2.393,2.9a.618.618,0,0,0,0,.788l2.393,2.9a.619.619,0,0,1-.323.993l-3.64.939a.619.619,0,0,0-.463.637l.232,3.752a.619.619,0,0,1-.845.614l-3.5-1.38a.619.619,0,0,0-.749.243L67.3,289.073a.619.619,0,0,1-1.044,0L64.243,285.9a.619.619,0,0,0-.749-.243l-3.5,1.38a.619.619,0,0,1-.845-.614l.232-3.752a.619.619,0,0,0-.463-.637l-3.64-.939a.619.619,0,0,1-.323-.993l2.393-2.9a.618.618,0,0,0,0-.788l-2.393-2.9a.619.619,0,0,1,.323-.993l3.64-.939a.619.619,0,0,0,.463-.637l-.232-3.752a.619.619,0,0,1,.845-.614l3.5,1.38a.619.619,0,0,0,.749-.243l2.018-3.171A.619.619,0,0,1,67.3,264.548Z" transform="translate(-54.817 -264.261)" fill="#ffd15b"/>
        </g>
        <g id="Grupo_1107894" data-name="Grupo 1107894" transform="translate(0 2.278)">
          <path id="Trazado_899334" data-name="Trazado 899334" d="M61.677,284.676a13.416,13.416,0,0,1,1.612-6.395L60,276.982a.619.619,0,0,0-.845.614l.232,3.752a.619.619,0,0,1-.463.637l-3.64.939a.619.619,0,0,0-.323.993l2.393,2.9a.619.619,0,0,1,0,.788l-2.393,2.9a.619.619,0,0,0,.323.993l3.64.939a.619.619,0,0,1,.463.637l-.232,3.752a.619.619,0,0,0,.845.614l3.5-1.38a.619.619,0,0,1,.749.243l2.018,3.171a.619.619,0,0,0,1.044,0l1.764-2.773A13.474,13.474,0,0,1,61.677,284.676Z" transform="translate(-54.816 -276.938)" fill="#fdb441"/>
        </g>
      </g>
      <g id="Grupo_1107896" data-name="Grupo 1107896" transform="translate(0 64.762)">
        <path id="Trazado_899335" data-name="Trazado 899335" d="M159.07,75.637h-.732c-.279-6.037-6.048-10.875-13.1-10.875s-12.825,4.838-13.1,10.875H118.4a6.644,6.644,0,0,0-5.3,2.643,6.644,6.644,0,0,0-5.3-2.643H85.848a1.348,1.348,0,0,0,0,2.7h21.941a3.96,3.96,0,0,1,3.956,3.956v48.5h-6.31a1.348,1.348,0,0,0,0,2.7H159.07a2.249,2.249,0,0,0,2.246-2.246V77.883a2.249,2.249,0,0,0-2.246-2.246ZM136.242,89.3a1.348,1.348,0,0,0,1.485-.091l3.2-2.408a15.112,15.112,0,0,0,8.756-.046v5.523H118.932V82.825h15.751a11.992,11.992,0,0,0,1.36,1.356l-.464,3.789A1.348,1.348,0,0,0,136.242,89.3Zm17.93,41.493H114.439v-48.5a3.96,3.96,0,0,1,3.956-3.956h13.98a10.176,10.176,0,0,0,.6,1.8H118.4a2.161,2.161,0,0,0-2.159,2.159V93.626a1.348,1.348,0,0,0,1.348,1.348h33.443a1.348,1.348,0,0,0,1.348-1.348V85.593a13.129,13.129,0,0,0,1.8-1.215v46.415Zm-8.937-46.062a12.178,12.178,0,0,1-4.107-.7,1.348,1.348,0,0,0-1.264.193l-1.224.922.17-1.387a1.348,1.348,0,0,0-.532-1.245,8.084,8.084,0,0,1-3.464-6.421c0-4.762,4.675-8.637,10.422-8.637s10.422,3.874,10.422,8.637S150.981,84.731,145.234,84.731Zm13.387,46.062h-1.754V81.321a10.281,10.281,0,0,0,1.226-2.989h.528Z" transform="translate(-69.316 -64.762)"/>
        <path id="Trazado_899336" data-name="Trazado 899336" d="M365.949,242.9h-18.1a1.348,1.348,0,0,0-1.348,1.348V256.08a1.348,1.348,0,0,0,1.348,1.348h18.1a1.348,1.348,0,0,0,1.348-1.348V244.245A1.348,1.348,0,0,0,365.949,242.9ZM364.6,254.732H349.2v-9.14H364.6Z" transform="translate(-284.238 -210.888)"/>
        <path id="Trazado_899337" data-name="Trazado 899337" d="M262.467,257.427h10.85a1.348,1.348,0,0,0,1.348-1.348V244.245a1.348,1.348,0,0,0-1.348-1.348h-10.85a1.348,1.348,0,0,0-1.348,1.348V256.08A1.348,1.348,0,0,0,262.467,257.427Zm1.348-11.835h8.154v9.14h-8.154Z" transform="translate(-214.199 -210.888)"/>
        <path id="Trazado_899338" data-name="Trazado 899338" d="M29.828,180.44H2.7V127.979h7.547a1.348,1.348,0,0,0,0-2.7h-8A2.249,2.249,0,0,0,0,127.53v53.359a2.249,2.249,0,0,0,2.246,2.246H29.828a1.348,1.348,0,0,0,0-2.7Z" transform="translate(0 -114.409)"/>
        <path id="Trazado_899339" data-name="Trazado 899339" d="M295.91,333.761h-5.523a1.348,1.348,0,0,0,0,2.7h4.176v3.527a13.017,13.017,0,0,0-14.426,6.981H263.814V336.456H284.1a1.348,1.348,0,0,0,0-2.7H262.467a1.348,1.348,0,0,0-1.348,1.348v13.2a1.348,1.348,0,0,0,1.348,1.348H295.91a1.348,1.348,0,0,0,1.348-1.348v-13.2A1.348,1.348,0,0,0,295.91,333.761Zm-1.348,13.2H283.238a10.348,10.348,0,0,1,11.324-4.21v4.21Z" transform="translate(-214.199 -285.425)"/>
        <path id="Trazado_899340" data-name="Trazado 899340" d="M396.168,106.828h-11.32a1.348,1.348,0,0,0,0,2.7h11.32a1.348,1.348,0,0,0,0-2.7Z" transform="translate(-314.59 -99.269)"/>
        <path id="Trazado_899341" data-name="Trazado 899341" d="M399.371,133.828h-9.523a1.348,1.348,0,0,0,0,2.7h9.523a1.348,1.348,0,0,0,0-2.7Z" transform="translate(-318.691 -121.418)"/>
        <path id="Trazado_899342" data-name="Trazado 899342" d="M43.328,150.284H26.348A1.348,1.348,0,0,0,25,151.632v12.149a1.348,1.348,0,0,0,1.348,1.348h16.98a1.348,1.348,0,0,0,1.348-1.348V151.632A1.348,1.348,0,0,0,43.328,150.284ZM41.98,162.433H27.7v-9.454H41.98Z" transform="translate(-20.508 -134.917)"/>
        <path id="Trazado_899343" data-name="Trazado 899343" d="M157.818,165.128a1.348,1.348,0,0,0,1.348-1.348V152.442a2.161,2.161,0,0,0-2.159-2.159H145.848a1.348,1.348,0,0,0-1.348,1.348V163.78a1.348,1.348,0,0,0,1.348,1.348ZM147.2,152.979h9.275v9.454H147.2Z" transform="translate(-118.535 -134.916)"/>
        <path id="Trazado_899344" data-name="Trazado 899344" d="M25,244.245V256.08a1.348,1.348,0,0,0,1.348,1.348h3.589l1.483,1.8H26.348A1.348,1.348,0,0,0,25,260.572v13.2a1.348,1.348,0,0,0,1.348,1.348h11.23a1.348,1.348,0,0,0,1.348-1.348v-4.15l.044-.017,1.695,2.664c.018.028.039.053.059.08v1.423a1.348,1.348,0,0,0,1.348,1.348H59.791a1.348,1.348,0,0,0,1.348-1.348v-13.2a1.348,1.348,0,0,0-1.348-1.348H53.227l1.483-1.8h5.081a1.348,1.348,0,0,0,1.348-1.348V244.245a1.348,1.348,0,0,0-1.348-1.348H26.348A1.348,1.348,0,0,0,25,244.245Zm11.23,28.183H27.7V261.919h1.62a1.966,1.966,0,0,0,1.17,2.956l3.057.789-.195,3.151a1.967,1.967,0,0,0,2.685,1.95l.2-.078v1.739Zm17.931-7.551a1.966,1.966,0,0,0,1.17-2.956h3.112v10.508H43.869c.04-.05.079-.1.114-.156l1.695-2.664,2.937,1.159a1.967,1.967,0,0,0,2.685-1.951l-.195-3.151Zm4.282-19.284v9.14h-3.01a1.955,1.955,0,0,0-1.273-1.038l-3.057-.789.195-3.151a1.967,1.967,0,0,0-2.685-1.95l-2.937,1.159L43.982,246.3a1.96,1.96,0,0,0-.792-.707H58.443Zm-14.717,5.325a1.97,1.97,0,0,0,2.381.774l2.431-.959-.161,2.609a1.97,1.97,0,0,0,1.472,2.025l2.53.653-1.664,2.015a1.97,1.97,0,0,0,0,2.5l1.664,2.015-2.53.653a1.969,1.969,0,0,0-1.472,2.025l.161,2.608-2.431-.959a1.969,1.969,0,0,0-2.381.774l-1.4,2.2-1.4-2.2a1.968,1.968,0,0,0-2.381-.774l-2.431.959.161-2.609A1.97,1.97,0,0,0,34.8,263.2l-2.53-.653,1.664-2.015a1.97,1.97,0,0,0,0-2.5l-1.664-2.015,2.53-.653a1.969,1.969,0,0,0,1.472-2.025l-.161-2.608,2.431.959a1.969,1.969,0,0,0,2.381-.774l1.4-2.2ZM27.7,245.592h13.76a1.958,1.958,0,0,0-.792.707l-1.695,2.664L36.032,247.8a1.967,1.967,0,0,0-2.685,1.951l.195,3.151-3.057.789a1.955,1.955,0,0,0-1.273,1.038H27.7Z" transform="translate(-20.508 -210.888)"/>
        <path id="Trazado_899345" data-name="Trazado 899345" d="M92.408,313.949a1.348,1.348,0,0,0,1.348,1.348h7.727a1.348,1.348,0,0,0,0-2.7H93.756A1.348,1.348,0,0,0,92.408,313.949Z" transform="translate(-75.803 -268.067)"/>
        <path id="Trazado_899346" data-name="Trazado 899346" d="M101.482,340.6H93.756a1.348,1.348,0,0,0,0,2.7h7.727a1.348,1.348,0,0,0,0-2.7Z" transform="translate(-75.803 -291.036)"/>
      </g>
    </g>
    <path id="Trazado_899439" data-name="Trazado 899439" d="M9.04-6.96H6.4V-9.52H3.52v2.56H.88v2.72H3.52v2.56H6.4V-4.24H9.04Z" transform="translate(1266.051 2935.52)" fill="#3b6b7c"/>
    <path id="Trazado_899440" data-name="Trazado 899440" d="M9.04-6.96H6.4V-9.52H3.52v2.56H.88v2.72H3.52v2.56H6.4V-4.24H9.04Z" transform="translate(1256.051 2988.6)" fill="#3b6b7c"/>
    <path id="Trazado_899438" data-name="Trazado 899438" d="M5.424.16c2.976,0,5.088-1.888,5.088-4.544S8.4-8.912,5.424-8.912C2.464-8.912.336-7.04.336-4.384S2.464.16,5.424.16Zm0-2.816C4.624-2.656,4-3.248,4-4.384S4.624-6.1,5.424-6.1s1.424.576,1.424,1.712S6.224-2.656,5.424-2.656Z" transform="translate(1378.051 2966.376)" fill="#3b6b7c"/>
  </g>
</svg>
