<svg xmlns="http://www.w3.org/2000/svg" xmlns:xlink="http://www.w3.org/1999/xlink" width="55.336" height="73" viewBox="0 0 55.336 73">
  <defs>
    <filter id="Rectángulo_401320" x="0" y="0" width="36" height="73" filterUnits="userSpaceOnUse">
      <feOffset dy="3" input="SourceAlpha"/>
      <feGaussianBlur stdDeviation="3" result="blur"/>
      <feFlood flood-opacity="0.161"/>
      <feComposite operator="in" in2="blur"/>
      <feComposite in="SourceGraphic"/>
    </filter>
    <filter id="Rectángulo_401321" x="9" y="5" width="36" height="68" filterUnits="userSpaceOnUse">
      <feOffset dy="3" input="SourceAlpha"/>
      <feGaussianBlur stdDeviation="3" result="blur-2"/>
      <feFlood flood-opacity="0.161"/>
      <feComposite operator="in" in2="blur-2"/>
      <feComposite in="SourceGraphic"/>
    </filter>
  </defs>
  <g id="Grupo_1107629" data-name="Grupo 1107629" transform="translate(-181.73 -2027)">
    <g transform="matrix(1, 0, 0, 1, 181.73, 2027)" filter="url(#Rectángulo_401320)">
      <rect id="Rectángulo_401320-2" data-name="Rectángulo 401320" width="18" height="55" transform="translate(9 6)" fill="#ffd9a1"/>
    </g>
    <g transform="matrix(1, 0, 0, 1, 181.73, 2027)" filter="url(#Rectángulo_401321)">
      <rect id="Rectángulo_401321-2" data-name="Rectángulo 401321" width="18" height="50" transform="translate(18 11)" fill="#ffebcf"/>
    </g>
    <g id="man_2993766" transform="translate(192.313 2044.249)">
      <path id="Trazado_896938" data-name="Trazado 896938" d="M106.774,46.89v3.66a.746.746,0,0,1-.746.746H78.808a.746.746,0,0,1-.746-.746V46.89a6.916,6.916,0,0,1,6.915-6.951,3.927,3.927,0,0,0,1.578-.316,5.393,5.393,0,0,0,.262.529q-.141-.256-.262-.529a3.854,3.854,0,0,0,2.32-3.535c0-.73-.006-.622.014-.672a9.23,9.23,0,0,1-5.7-8.53v-.291a2.3,2.3,0,0,1-2.33-2.288V20.433c-.03-1.349.032-6.106,3.468-9.418,4-3.851,10.327-3.536,14.913-1.476a.187.187,0,0,1-.007.343l-1.2.492a.187.187,0,0,0,.051.358l.581.062a9.419,9.419,0,0,1,6.97,4.324.2.2,0,0,1-.027.225,5.644,5.644,0,0,0-1.542,3.877v4.951a2.424,2.424,0,0,1-2.424,2.424v.291a9.23,9.23,0,0,1-5.7,8.53c.02.05.014-.056.014.672a3.853,3.853,0,0,0,3.9,3.851A6.916,6.916,0,0,1,106.774,46.89Z" transform="translate(-70.782 -7.29)" fill="#ffebd2"/>
      <path id="Trazado_896939" data-name="Trazado 896939" d="M132.806,15.116a.2.2,0,0,1-.027.225,5.643,5.643,0,0,0-1.542,3.877v4.951a2.424,2.424,0,0,1-2.424,2.424V21.872a.745.745,0,0,0-.756-.745,12.027,12.027,0,0,1-6.859-2.01.744.744,0,0,0-1.153.584,3.264,3.264,0,0,0,.148,1.113.744.744,0,0,1-.842.954,11.325,11.325,0,0,1-5.406-2.573,2.165,2.165,0,0,0-3.589,1.641v5.758a2.3,2.3,0,0,1-2.33-2.288V20.431c-.03-1.349.032-6.106,3.468-9.418,4-3.851,10.327-3.536,14.913-1.475a.187.187,0,0,1-.006.343l-1.2.492a.186.186,0,0,0,.051.358l.581.062A9.418,9.418,0,0,1,132.806,15.116Z" transform="translate(-97.95 -7.288)" fill="#42434d"/>
      <path id="Trazado_896940" data-name="Trazado 896940" d="M106.774,354.079v3.66a.746.746,0,0,1-.746.746H78.808a.746.746,0,0,1-.746-.746v-3.66a6.916,6.916,0,0,1,6.915-6.952,3.844,3.844,0,0,0,1.577-.318,6.405,6.405,0,0,0,11.727,0,3.96,3.96,0,0,0,1.577.318A6.916,6.916,0,0,1,106.774,354.079Z" transform="translate(-70.782 -314.48)" fill="#42434d"/>
      <path id="Trazado_896941" data-name="Trazado 896941" d="M169.425,347.374c-.1-.178-.263-.512-.263-.529C169.171,346.845,169.218,347,169.425,347.374Z" transform="translate(-153.39 -314.513)" fill="#ffd6a6"/>
      <path id="Trazado_896942" data-name="Trazado 896942" d="M200.227,303.26a9.254,9.254,0,0,1-7.3,0,5.776,5.776,0,0,0,.105-1.531l.014-.034a9.248,9.248,0,0,0,7.057,0l.014.034A5.778,5.778,0,0,0,200.227,303.26Z" transform="translate(-174.944 -273.572)" fill="#ffdfba"/>
      <path id="Trazado_896943" data-name="Trazado 896943" d="M126.4,9.882c-.544.224-.77.363-1.187.287-6.894-1.259-12.686,1.878-14.087,8.729a1.171,1.171,0,0,1-.265.527,2.1,2.1,0,0,0-.505,1.367v3.542a1.165,1.165,0,0,1-2.328.088c0-.093,0,.153,0-3.99-.03-1.349.032-6.106,3.468-9.418,4-3.851,10.327-3.536,14.913-1.476A.187.187,0,0,1,126.4,9.882Z" transform="translate(-97.95 -7.289)" fill="#4d4e59"/>
      <path id="Trazado_896944" data-name="Trazado 896944" d="M140.2,143.319a1.473,1.473,0,0,1-1.341,2.61,9.23,9.23,0,0,1-5.8-8.57c0-6.492,0-6.108,0-6.206a1.4,1.4,0,0,1,2.792.115c0,.915,0,2.256,0,4.226A9.162,9.162,0,0,0,140.2,143.319Z" transform="translate(-120.652 -117.763)" fill="#fff3e4"/>
      <path id="Trazado_896945" data-name="Trazado 896945" d="M169.425,347.374c-.1-.178-.263-.512-.263-.529C169.171,346.845,169.218,347,169.425,347.374Z" transform="translate(-153.39 -314.513)" fill="#ffd6a6"/>
      <path id="Trazado_896946" data-name="Trazado 896946" d="M86.986,347.641a1.488,1.488,0,0,1-.9,2.223c-2.342.606-5.411,2.182-5.411,6.63V358.5H78.808a.746.746,0,0,1-.746-.746v-3.66a6.952,6.952,0,0,1,4.09-6.337h0c2.22-1,2.852-.287,4.4-.932a6.388,6.388,0,0,0,.431.816Z" transform="translate(-70.782 -314.495)" fill="#4d4e59"/>
      <path id="Trazado_896947" data-name="Trazado 896947" d="M287.824,347.641a1.488,1.488,0,0,0,.9,2.223c2.342.606,5.411,2.182,5.411,6.63V358.5H296a.746.746,0,0,0,.746-.746v-3.66a6.952,6.952,0,0,0-4.09-6.337h0c-2.22-1-2.852-.287-4.4-.932A6.393,6.393,0,0,1,287.824,347.641Z" transform="translate(-260.788 -314.495)" fill="#2c2c33"/>
      <path id="Trazado_896948" data-name="Trazado 896948" d="M17.772,277.412V286.3a1.864,1.864,0,0,1-1.864,1.864H9.926A1.864,1.864,0,0,1,8.062,286.3v-8.887l3.96-7.611a1.009,1.009,0,0,1,1.79,0Z" transform="translate(-7.308 -244.158)" fill="#fe4f60"/>
      <path id="Trazado_896949" data-name="Trazado 896949" d="M17.772,277.412l-1.378,1.334a1.492,1.492,0,0,1-2,.069l-.518-.436a1.49,1.49,0,0,0-1.921,0l-.518.436a1.492,1.492,0,0,1-2-.069l-1.379-1.334,3.96-7.611a1.009,1.009,0,0,1,1.79,0Z" transform="translate(-7.308 -244.158)" fill="#ffebd2"/>
      <path id="Trazado_896950" data-name="Trazado 896950" d="M33,269.8l1.987,3.82H29.222l1.987-3.82A1.009,1.009,0,0,1,33,269.8Z" transform="translate(-26.495 -244.158)" fill="#42434d"/>
      <path id="Trazado_896951" data-name="Trazado 896951" d="M32.207,272.629l-.832,3.442H29.222l1.995-3.834A.537.537,0,0,1,32.207,272.629Z" transform="translate(-26.495 -246.608)" fill="#585966"/>
      <path id="Trazado_896952" data-name="Trazado 896952" d="M12.187,316.065l-1.328,5.5a1.49,1.49,0,0,1-1.418-.37l-1.379-1.334,1.973-3.791Z" transform="translate(-7.308 -286.602)" fill="#fff3e4"/>
      <path id="Trazado_896953" data-name="Trazado 896953" d="M10.859,358.439v9.047H9.926a1.864,1.864,0,0,1-1.864-1.864v-8.887l1.379,1.334A1.49,1.49,0,0,0,10.859,358.439Z" transform="translate(-7.308 -323.481)" fill="#ff6d7a"/>
      <path id="Trazado_896954" data-name="Trazado 896954" d="M375.053,17.261v1.712a2.144,2.144,0,1,1-4.288,0V17.261a4.848,4.848,0,1,1,4.288,0Z" transform="translate(-333.749 -7.314)" fill="#ffe773"/>
      <path id="Trazado_896955" data-name="Trazado 896955" d="M375.076,8.6a.7.7,0,0,1-.324,1.32,4.856,4.856,0,0,0-4.88,4.878.7.7,0,0,1-1.32.343,4.853,4.853,0,0,1,4.676-7.067,4.785,4.785,0,0,1,1.848.526Z" transform="translate(-333.694 -7.309)" fill="#ffec8f"/>
      <path id="Trazado_896956" data-name="Trazado 896956" d="M401.35,107.065v1.678a2.144,2.144,0,0,1-4.288,0v-1.678Z" transform="translate(-360.045 -97.085)" fill="#42434d"/>
      <path id="Trazado_896957" data-name="Trazado 896957" d="M398.321,109.729a.419.419,0,0,1-.668.49,2.132,2.132,0,0,1-.591-1.477v-1.678h1.018C398.081,108.8,398.014,109.139,398.321,109.729Z" transform="translate(-360.046 -97.084)" fill="#4d4e59"/>
      <path id="Trazado_896958" data-name="Trazado 896958" d="M36.737,39.6v4.405a.746.746,0,0,1-1.492,0V39.6a6.2,6.2,0,0,0-6.206-6.206A4.579,4.579,0,0,1,25.1,31.182a.746.746,0,0,1,1.274-.776,3.1,3.1,0,0,0,2.666,1.5A7.693,7.693,0,0,1,36.737,39.6Zm5.314-29.212v1.27a2.89,2.89,0,1,1-5.78,0v-1.27a5.594,5.594,0,1,1,5.78,0Zm1.2-5.054a4.1,4.1,0,1,0-5.988,3.9h1.615a.746.746,0,0,1,0,1.492H37.763v.932a1.4,1.4,0,1,0,2.8,0V9.946a.746.746,0,0,1,.416-.669,4.1,4.1,0,0,0,2.279-3.944ZM25.282,34.079a5.658,5.658,0,0,1-8.515-1.442,4.583,4.583,0,0,0,2.056-3.473A9.986,9.986,0,0,0,31.6,19.975a3.006,3.006,0,0,0,2.431-2.961V12.683a.746.746,0,1,0-1.492,0v4.331a1.493,1.493,0,0,1-.932,1.406V16.808a.746.746,0,0,0-1.492,0v2.785a8.483,8.483,0,0,1-16.966,0V13.544a1.418,1.418,0,0,1,2.356-1.077,12.11,12.11,0,0,0,7.3,2.918.747.747,0,0,0,.615-1.216,2.588,2.588,0,0,1-.585-1.72,12.825,12.825,0,0,0,8.08,2.1.746.746,0,1,0-.112-1.487,11.313,11.313,0,0,1-7.961-2.449.746.746,0,0,0-1.148.28,4.034,4.034,0,0,0-.168,2.852,10.583,10.583,0,0,1-5.05-2.4A2.912,2.912,0,0,0,11.661,13.5v4.883a1.54,1.54,0,0,1-.839-1.364c0-.017,0-3.874,0-3.891-.037-1.69.2-5.938,3.24-8.865,3.392-3.27,8.7-3.271,12.827-1.833l-.6.245A.746.746,0,0,0,26.5,4.1a11.181,11.181,0,0,1,4.054.9.746.746,0,1,0,.626-1.354A10.218,10.218,0,0,0,29.325,3a.747.747,0,0,0-.156-1.243C24.139-.666,17.3-.93,13.027,3.185c-3.456,3.331-3.737,8.071-3.7,9.963v3.866a3.043,3.043,0,0,0,2.338,2.948A9.991,9.991,0,0,0,17.348,28.6v.2A3.109,3.109,0,0,1,14.232,31.9a.746.746,0,1,0,0,1.492,4.644,4.644,0,0,0,1.166-.148A7.15,7.15,0,0,0,26.242,35.22a.746.746,0,0,0-.961-1.141ZM7.166,25.3a1.755,1.755,0,0,0-3.113,0L.1,32.9c-.126.236-.088-.343-.088,11.1a.746.746,0,0,0,1.492,0V35.054a2.266,2.266,0,0,0,3.079.105l.37-.322a.771.771,0,0,1,1.007,0,2.727,2.727,0,0,0,1.779.913.746.746,0,1,0,.079-1.489c-.323-.017-.446-.173-.88-.55a2.269,2.269,0,0,0-2.964,0l-.37.322A.77.77,0,0,1,2.553,34l-.885-.885,1.511-2.9H5.695a.746.746,0,1,0,0-1.492H3.956l1.421-2.73a.263.263,0,0,1,.467,0l3.876,7.45V44.005a.746.746,0,1,0,1.492,0c0-11.6.038-10.861-.084-11.1ZM19.79,23.907a3.08,3.08,0,0,0,3.691,0,.746.746,0,0,0-.895-1.193,1.587,1.587,0,0,1-1.9,0,.746.746,0,0,0-.9,1.193Zm-.112-6.749a.746.746,0,1,0-1.492,0V17.9a.746.746,0,1,0,1.492,0Zm4.661,1.492a.746.746,0,0,0,.746-.746v-.746a.746.746,0,0,0-1.492,0V17.9A.746.746,0,0,0,24.339,18.649Z" transform="translate(0)"/>
    </g>
  </g>
</svg>
