<svg xmlns="http://www.w3.org/2000/svg" width="85" height="85" viewBox="0 0 85 85">
  <g id="Grupo_1107903" data-name="Grupo 1107903" transform="translate(-210.051 -2657)">
    <rect id="Rectángulo_402641" data-name="Rectángulo 402641" width="85" height="85" transform="translate(210.051 2657)" fill="#ffdb52"/>
    <g id="Grupo_1107902" data-name="Grupo 1107902" transform="translate(201.737 2649.872)">
      <path id="Trazado_899388" data-name="Trazado 899388" d="M97.523,62.616c-.019-.018-.039-.035-.057-.054l-.586-.646H112.9a.386.386,0,0,0,0-.772H93.681l-6.323-6.324.112-.245a2.176,2.176,0,0,0-3.515-2.446L80.52,55.562V31.078A3.482,3.482,0,0,1,84,27.6h32.888a3.482,3.482,0,0,1,3.477,3.477V75.471a3.482,3.482,0,0,1-3.477,3.478h-7.6V77.454a.386.386,0,0,0-.386-.386H105.98V74.775H112.9a.386.386,0,0,0,0-.772h-7.249l-.115-.169a2.558,2.558,0,0,0-2.115-1.12H90.213a2.568,2.568,0,0,0-2.563,2.563v1.791H84.735a.386.386,0,0,0-.386.386v1.5L83.92,78.9c-1.992-.22-3.4-1.289-3.4-3.432V72.483l6.81-6.812L89.4,67.739l-.113.245A2.173,2.173,0,0,0,92.8,70.43l3.914-3.914H112.9a.386.386,0,0,0,0-.772H97.626l.294-.564a2.2,2.2,0,0,0,.246-1.017,2.154,2.154,0,0,0-.633-1.539Z" transform="translate(-52.035 -7.841)" fill="#f1f1f2" fill-rule="evenodd"/>
      <path id="Trazado_899389" data-name="Trazado 899389" d="M213.769,88.21l7.545,1.007a3.484,3.484,0,0,1,2.987,3.906l-5.862,44a3.488,3.488,0,0,1-3.909,2.987l-27.69-3.689.048-.721h14.64a.387.387,0,0,0,.386-.386v-2.79h7.6a4.257,4.257,0,0,0,4.25-4.25V88.21Z" transform="translate(-144.667 -60.648)" fill="#60b7ff" fill-rule="evenodd"/>
      <path id="Trazado_899390" data-name="Trazado 899390" d="M32.494,313.861a1.6,1.6,0,0,1-2.133.109l-.061-.049-.037-.07c-.026-.049-.063-.1-.094-.145-.5-.769-.637-1.4.067-2.1L40.3,301.54l2.261,2.257Z" transform="translate(-7.802 -246.512)" fill="#968996" fill-rule="evenodd"/>
      <path id="Trazado_899391" data-name="Trazado 899391" d="M170.153,54.743a35.851,35.851,0,0,1-.431,9.265,20.087,20.087,0,0,1-2.4,6.5,19.045,19.045,0,0,1-8.15,7.189l-.176.09-.176-.09a19.045,19.045,0,0,1-8.15-7.189,20.075,20.075,0,0,1-2.4-6.5,35.8,35.8,0,0,1-.431-9.265l.023-.339.339-.021a19.531,19.531,0,0,0,10.566-3.667l.228-.167.228.167a19.542,19.542,0,0,0,10.566,3.667l.339.021Z" transform="translate(-110.587 -27.837)" fill="#f1f1f2" fill-rule="evenodd"/>
      <path id="Trazado_899392" data-name="Trazado 899392" d="M165.65,48.077a.385.385,0,0,0-.373-.354,18.887,18.887,0,0,1-11.265-3.888.385.385,0,0,0-.475,0,18.865,18.865,0,0,1-11.265,3.888.385.385,0,0,0-.368.355c-.457,5.536-.124,11.545,2.669,16.485a20.054,20.054,0,0,0,9.03,8.079.376.376,0,0,0,.175.04.407.407,0,0,0,.17-.04,20.061,20.061,0,0,0,9.03-8.079C165.771,59.623,166.1,53.612,165.65,48.077Z" transform="translate(-105.367 -21.914)" fill="#60b7ff" fill-rule="evenodd"/>
      <path id="Trazado_899393" data-name="Trazado 899393" d="M106.734,250.01l.9.9-4.341,4.347-7.424-7.422,4.348-4.345,6.516,6.519Z" transform="translate(-65.409 -195.936)" fill="#968996" fill-rule="evenodd"/>
      <path id="Trazado_899394" data-name="Trazado 899394" d="M158.223,301.1a1.4,1.4,0,0,1,1.98,0,1.41,1.41,0,0,1,0,1.984l-4.728,4.732a1.4,1.4,0,0,1-1.984-1.987Z" transform="translate(-115.255 -245.771)" fill="#968996" fill-rule="evenodd"/>
      <path id="Trazado_899395" data-name="Trazado 899395" d="M80.54,286.77v-5.2l.364-.021a2.156,2.156,0,0,0,.785-.194l.243-.112,2.073,2.066Z" transform="translate(-52.052 -228.826)" fill="#f1f1f2" fill-rule="evenodd"/>
      <path id="Trazado_899396" data-name="Trazado 899396" d="M73.938,226.3a1.4,1.4,0,1,1-1.987-1.983l4.732-4.73a1.4,1.4,0,0,1,2.39.993,1.374,1.374,0,0,1-.409.993Z" transform="translate(-44.213 -174.756)" fill="#968996" fill-rule="evenodd"/>
      <path id="Trazado_899397" data-name="Trazado 899397" d="M181.085,100.585a13.489,13.489,0,0,1-5.714-5.095,14.287,14.287,0,0,1-1.69-4.571,25.253,25.253,0,0,1-.331-6.467l.022-.337.336-.024a14.114,14.114,0,0,0,7.331-2.551l.225-.161.225.161a14.094,14.094,0,0,0,7.331,2.551l.336.024.022.337a25.251,25.251,0,0,1-.331,6.467,14.349,14.349,0,0,1-1.69,4.571,13.5,13.5,0,0,1-5.714,5.095l-.178.091Z" transform="translate(-132.854 -54.697)" fill="#f1f1f2" fill-rule="evenodd"/>
      <path id="Trazado_899398" data-name="Trazado 899398" d="M184.658,77.787a.387.387,0,0,0-.375-.354,13.294,13.294,0,0,1-8.026-2.768.385.385,0,0,0-.475,0,13.29,13.29,0,0,1-8.022,2.769.387.387,0,0,0-.375.354,26.786,26.786,0,0,0,.3,7.364,15.045,15.045,0,0,0,1.911,5.02,14.57,14.57,0,0,0,6.248,5.36.392.392,0,0,0,.175.04.411.411,0,0,0,.17-.04,14.6,14.6,0,0,0,6.251-5.361,15.04,15.04,0,0,0,1.913-5.02A26.738,26.738,0,0,0,184.658,77.787Z" transform="translate(-127.613 -48.775)" fill="#ffd064" fill-rule="evenodd"/>
      <path id="Trazado_899399" data-name="Trazado 899399" d="M116.27,417.83h23.388v4.285H116.27Z" transform="translate(-83.182 -347.83)" fill="#87d4ed" fill-rule="evenodd"/>
      <path id="Trazado_899400" data-name="Trazado 899400" d="M141.91,387.592V385.8a1.793,1.793,0,0,1,1.79-1.791h13.206a1.793,1.793,0,0,1,1.79,1.791v1.791Z" transform="translate(-105.521 -318.364)" fill="#87d4ed" fill-rule="evenodd"/>
      <path id="Trazado_899401" data-name="Trazado 899401" d="M51.353,62.892a.773.773,0,0,1,.772-.772h8.737a.772.772,0,1,1,0,1.545H52.126A.772.772,0,0,1,51.353,62.892Zm1.466-29.6a.766.766,0,0,1,0,1.092l-4.926,4.926a.768.768,0,0,1-1.089,0L43.993,36.5a.772.772,0,0,1,1.093-1.092l2.266,2.262L51.73,33.3A.768.768,0,0,1,52.82,33.294ZM48.409,45.546c4.153-2.149,8.164-5.794,7.528-15.765a14.465,14.465,0,0,1-7.528-2.621,14.47,14.47,0,0,1-7.528,2.621C40.245,39.752,44.255,43.4,48.409,45.546Zm8.275-17.273a12.891,12.891,0,0,1-7.8-2.687.771.771,0,0,0-.951,0,12.883,12.883,0,0,1-7.8,2.687.772.772,0,0,0-.747.708C38.42,40.734,43.514,44.839,48.061,47.1a.781.781,0,0,0,.346.081.752.752,0,0,0,.341-.081c4.547-2.265,9.647-6.37,8.679-18.123A.767.767,0,0,0,56.683,28.273ZM48.409,49.516c5.961-3.047,11.765-8.208,10.771-22.582a19.877,19.877,0,0,1-10.771-3.74,19.877,19.877,0,0,1-10.771,3.74C36.644,41.309,42.448,46.469,48.409,49.516Zm11.513-24.1a18.472,18.472,0,0,1-11.04-3.806.771.771,0,0,0-.951,0,18.445,18.445,0,0,1-11.04,3.806.773.773,0,0,0-.742.709c-.578,6.99.315,12.454,2.718,16.708a20.322,20.322,0,0,0,9.194,8.235.781.781,0,0,0,.346.081.752.752,0,0,0,.341-.081,20.31,20.31,0,0,0,9.194-8.235c2.408-4.253,3.3-9.718,2.723-16.708a.767.767,0,0,0-.743-.709Zm19.33,7A3.094,3.094,0,0,0,76.6,28.951L69.489,28V67.631a4.643,4.643,0,0,1-4.636,4.636H57.635v2.4a.773.773,0,0,1-.772.772H42.584l27.331,3.641A3.1,3.1,0,0,0,73.39,76.43ZM33.474,70.386H56.09V73.9H33.474Zm19.314-2.951v1.4H36.775v-1.4a1.407,1.407,0,0,1,1.4-1.4H51.384A1.407,1.407,0,0,1,52.788,67.436Zm-20.86,2.178a.772.772,0,0,1,.772-.772h2.529v-1.4a2.954,2.954,0,0,1,2.95-2.95H51.384a2.947,2.947,0,0,1,2.435,1.289h7.044a.772.772,0,1,1,0,1.545H54.334v1.521h2.529a.772.772,0,0,1,.772.772v1.109h7.218a3.1,3.1,0,0,0,3.091-3.091v-44.4a3.1,3.1,0,0,0-3.091-3.091H31.965a3.1,3.1,0,0,0-3.091,3.091V46.787l2.776-2.775a2.563,2.563,0,0,1,4.138,2.883l6.019,6.02H60.863a.772.772,0,1,1,0,1.545H45.717c.015.018.037.032.053.05a2.536,2.536,0,0,1,.747,1.811,2.584,2.584,0,0,1-.29,1.2H60.863a.772.772,0,1,1,0,1.545H44.84l-3.8,3.8a2.558,2.558,0,0,1-4.133-2.881l-1.608-1.6L28.874,64.8v2.827c0,2.245,1.671,2.9,3.054,3.049Zm-7.506-2.54a1.211,1.211,0,0,1-.857.351,1.2,1.2,0,0,1-.762-.268c-.031-.059-.073-.116-.111-.174-.421-.645-.53-1.072.015-1.62l9.789-9.79,1.714,1.711Zm4.452-13.967a2.551,2.551,0,0,0,.926-.229l1.608,1.6-2.534,2.531Zm5.3-6.565-4.726,4.73a1.017,1.017,0,0,1-1.441-1.437l4.732-4.73a1.02,1.02,0,0,1,1.434,0,1.024,1.024,0,0,1,0,1.437Zm6.761,7.69h0l.742.742-3.8,3.8L31.008,51.9l3.8-3.8Zm3.738,2.808-4.726,4.73a1.017,1.017,0,1,1-1.439-1.438l4.732-4.73a1.013,1.013,0,0,1,1.434,0,1.024,1.024,0,0,1,0,1.438ZM76.8,27.419l-7.313-.973v-3.21A4.642,4.642,0,0,0,64.853,18.6H31.965a4.642,4.642,0,0,0-4.636,4.636v25.1l-.411.409a2.571,2.571,0,0,0,0,3.623,2.8,2.8,0,0,0,.411.332v5.861l-5.714,5.714a2.575,2.575,0,0,0-.215,3.555.454.454,0,0,0,.042.061.712.712,0,0,0,.179.279,2.757,2.757,0,0,0,3.891,0l1.819-1.818V67.63c0,2.63,1.746,4.343,4.6,4.6V74.67a.773.773,0,0,0,.772.772h2.329a4.606,4.606,0,0,0,2.087.829l32.594,4.344a4.827,4.827,0,0,0,.615.041,4.646,4.646,0,0,0,4.6-4.025l5.867-44a4.653,4.653,0,0,0-3.99-5.208Z" fill-rule="evenodd"/>
    </g>
  </g>
</svg>
