<svg xmlns="http://www.w3.org/2000/svg" width="190" height="91" viewBox="0 0 190 91">
  <g id="Grupo_1107927" data-name="Grupo 1107927" transform="translate(-1230 -1986)">
    <rect id="Rectángulo_402670" data-name="Rectángulo 402670" width="190" height="61" transform="translate(1230 1986)" fill="#a3e3fa"/>
    <g id="Elipse_11513" data-name="Elipse 11513" transform="translate(1263.051 2007)" fill="none" stroke="#f6bcdd" stroke-width="4">
      <circle cx="28" cy="28" r="28" stroke="none"/>
      <circle cx="28" cy="28" r="26" fill="none"/>
    </g>
    <circle id="Elipse_11514" data-name="Elipse 11514" cx="12.5" cy="12.5" r="12.5" transform="translate(1355.051 1995)" fill="#fef7fb"/>
    <g id="Grupo_1107925" data-name="Grupo 1107925" transform="translate(1261.543 1986)">
      <g id="Grupo_1107925-2" data-name="Grupo 1107925" transform="translate(25.382 1.333)">
        <path id="Trazado_899420" data-name="Trazado 899420" d="M265.613,23.532H239.968V36.355h14.247v-5.7a1.425,1.425,0,0,1,1.425-1.425h9.973a1.425,1.425,0,0,0,1.425-1.425v-2.85A1.425,1.425,0,0,0,265.613,23.532Z" transform="translate(-202.925 -20.683)" fill="#6f6571"/>
        <path id="Trazado_899421" data-name="Trazado 899421" d="M278.436,87.661H239.968v9.973h39.893V89.086A1.425,1.425,0,0,0,278.436,87.661Z" transform="translate(-202.925 -73.414)" fill="#5d5360"/>
        <path id="Trazado_899422" data-name="Trazado 899422" d="M51.855,7.5a4.274,4.274,0,0,0-4.274,4.274V31.721H84.624V7.5Z" transform="translate(-44.732 -7.5)" fill="#eceaec"/>
        <path id="Trazado_899423" data-name="Trazado 899423" d="M47.581,223.935v47.017a1.425,1.425,0,0,0,1.425,1.425h71.237a1.425,1.425,0,0,0,1.425-1.425V223.935Z" transform="translate(-44.732 -185.467)" fill="#eceaec"/>
        <rect id="Rectángulo_402671" data-name="Rectángulo 402671" width="74.087" height="17.097" transform="translate(2.849 35.619)" fill="#6f6571"/>
        <rect id="Rectángulo_402672" data-name="Rectángulo 402672" width="74.087" height="5.699" transform="translate(2.849 37.043)" fill="#5d5360"/>
        <rect id="Rectángulo_402673" data-name="Rectángulo 402673" width="56.99" height="14.247" transform="translate(11.398 38.468)" fill="#5d5360"/>
        <rect id="Rectángulo_402674" data-name="Rectángulo 402674" width="56.99" height="5.699" transform="translate(11.398 37.043)" fill="#4b3f4e"/>
        <path id="Trazado_899424" data-name="Trazado 899424" d="M108.485,144.839H34.4a2.849,2.849,0,0,1-2.849-2.849v-11.4a2.849,2.849,0,0,1,2.849-2.849h74.087a2.849,2.849,0,0,1,2.849,2.849v11.4A2.849,2.849,0,0,1,108.485,144.839Z" transform="translate(-31.549 -106.371)" fill="#857e87"/>
        <path id="Trazado_899425" data-name="Trazado 899425" d="M213.242,125.957H193.3a1.425,1.425,0,0,1-1.425-1.425v-11.4a1.425,1.425,0,0,1,1.425-1.425h19.946a1.425,1.425,0,0,1,1.425,1.425v11.4A1.425,1.425,0,0,1,213.242,125.957Z" transform="translate(-163.376 -93.188)" fill="#c3ddff"/>
        <path id="Trazado_899426" data-name="Trazado 899426" d="M196.145,118.834V111.71H193.3a1.425,1.425,0,0,0-1.425,1.425v11.4a1.425,1.425,0,0,0,1.425,1.425h19.946a1.425,1.425,0,0,0,1.425-1.425v-2.849H198.995A2.85,2.85,0,0,1,196.145,118.834Z" transform="translate(-163.376 -93.188)" fill="#a4ccff"/>
        <path id="Trazado_899427" data-name="Trazado 899427" d="M120.243,476.71H49.006a1.425,1.425,0,0,1-1.425-1.425v-2.849h74.087v2.849A1.425,1.425,0,0,1,120.243,476.71Z" transform="translate(-44.732 -389.801)" fill="#dad8db"/>
        <path id="Trazado_899428" data-name="Trazado 899428" d="M185.985,464.419H154.64a2.849,2.849,0,0,0-2.849,2.849v2.849h37.043v-2.849A2.85,2.85,0,0,0,185.985,464.419Z" transform="translate(-130.42 -383.209)" fill="#9b959d"/>
      </g>
      <g id="Grupo_1107926" data-name="Grupo 1107926" transform="translate(24.049)">
        <path id="Trazado_899429" data-name="Trazado 899429" d="M103.651,21.59V17.005a2.761,2.761,0,0,0-2.758-2.758H78.006V11.306a.092.092,0,0,1,.092-.092h9.973a2.761,2.761,0,0,0,2.758-2.758V5.607a2.761,2.761,0,0,0-2.758-2.758H66.608V1.333A1.333,1.333,0,0,0,65.275,0H32.506A5.613,5.613,0,0,0,26.9,5.607V21.59a4.189,4.189,0,0,0-2.849,3.963v11.4A4.189,4.189,0,0,0,26.9,40.915v45.9a2.761,2.761,0,0,0,2.758,2.758h1.521c0,.03,0,.061,0,.092A1.333,1.333,0,0,0,32.506,91h2.849a1.333,1.333,0,0,0,1.333-1.333c0-.031,0-.061,0-.092H93.866c0,.03,0,.061,0,.092A1.333,1.333,0,0,0,95.194,91h2.849a1.333,1.333,0,0,0,1.333-1.333c0-.031,0-.061,0-.092h1.521a2.761,2.761,0,0,0,2.758-2.758v-45.9a4.189,4.189,0,0,0,2.849-3.963v-11.4A4.189,4.189,0,0,0,103.651,21.59ZM88.071,5.515a.092.092,0,0,1,.092.092V8.457a.092.092,0,0,1-.092.092H78.1a2.761,2.761,0,0,0-2.758,2.758v2.941H66.608V5.515ZM75.34,32.677a.092.092,0,0,1-.092.092H55.3a.092.092,0,0,1-.092-.092v-11.4a.092.092,0,0,1,.092-.092H75.248a.092.092,0,0,1,.092.092ZM32.506,2.666H63.942V18.522H55.3a2.761,2.761,0,0,0-2.758,2.758v.092H29.564V5.607A2.944,2.944,0,0,1,32.506,2.666Zm2.941,38.468V52.715H29.564V41.134Zm5.7,0V52.715H38.113V41.134Zm45.592,0v3.033H43.812V41.134Zm5.7,0V52.715H89.4V41.134Zm8.548,0V52.715H95.1V41.134ZM43.812,52.715V46.833h5.882v1.516a1.333,1.333,0,1,0,2.666,0V46.833H63.942v1.516a1.333,1.333,0,1,0,2.666,0V46.833H78.189v1.516a1.333,1.333,0,1,0,2.666,0V46.833h5.882v5.882ZM82.463,86.909H48.086V85.393A1.518,1.518,0,0,1,49.6,83.876H80.947a1.518,1.518,0,0,1,1.516,1.516Zm18.43,0H85.129V85.393a4.187,4.187,0,0,0-4.182-4.182H49.6a4.187,4.187,0,0,0-4.182,4.182v1.516H29.656a.092.092,0,0,1-.092-.092v-8.64h2.942a1.333,1.333,0,0,0,0-2.666H29.564V55.381h71.421v20.13H38.2a1.333,1.333,0,1,0,0,2.666h62.781v8.64A.092.092,0,0,1,100.893,86.909Zm2.941-49.958a1.518,1.518,0,0,1-1.515,1.516H28.23a1.518,1.518,0,0,1-1.515-1.516v-11.4a1.518,1.518,0,0,1,1.514-1.516H52.544v8.64A2.761,2.761,0,0,0,55.3,35.435H75.248a2.761,2.761,0,0,0,2.758-2.758v-8.64H93.769a1.333,1.333,0,0,0,0-2.666H78.005v-.092a2.761,2.761,0,0,0-2.758-2.758h-8.64V16.914h34.285a.092.092,0,0,1,.092.092v4.366H99.468a1.333,1.333,0,1,0,0,2.666h2.849a1.518,1.518,0,0,1,1.516,1.517v11.4Z" transform="translate(-24.049)"/>
        <path id="Trazado_899430" data-name="Trazado 899430" d="M347.451,152.307h-1.425a1.333,1.333,0,1,0,0,2.666h1.425a1.333,1.333,0,0,0,0-2.666Z" transform="translate(-287.704 -125.237)"/>
        <path id="Trazado_899431" data-name="Trazado 899431" d="M147.049,152.307h-1.425a1.333,1.333,0,0,0,0,2.666h1.425a1.333,1.333,0,0,0,0-2.666Z" transform="translate(-122.92 -125.237)"/>
        <path id="Trazado_899432" data-name="Trazado 899432" d="M147.049,184.371h-1.425a1.333,1.333,0,0,0,0,2.666h1.425a1.333,1.333,0,0,0,0-2.666Z" transform="translate(-122.92 -151.602)"/>
        <path id="Trazado_899433" data-name="Trazado 899433" d="M387.533,152.307h-1.425a1.333,1.333,0,0,0,0,2.666h1.425a1.333,1.333,0,0,0,0-2.666Z" transform="translate(-320.662 -125.237)"/>
        <path id="Trazado_899434" data-name="Trazado 899434" d="M427.613,152.307h-1.425a1.333,1.333,0,1,0,0,2.666h1.425a1.333,1.333,0,0,0,0-2.666Z" transform="translate(-353.618 -125.237)"/>
        <path id="Trazado_899435" data-name="Trazado 899435" d="M347.451,184.371h-1.425a1.333,1.333,0,1,0,0,2.666h1.425a1.333,1.333,0,0,0,0-2.666Z" transform="translate(-287.704 -151.602)"/>
        <path id="Trazado_899436" data-name="Trazado 899436" d="M387.533,184.371h-1.425a1.333,1.333,0,0,0,0,2.666h1.425a1.333,1.333,0,0,0,0-2.666Z" transform="translate(-320.662 -151.602)"/>
        <path id="Trazado_899437" data-name="Trazado 899437" d="M427.613,184.371h-1.425a1.333,1.333,0,1,0,0,2.666h1.425a1.333,1.333,0,0,0,0-2.666Z" transform="translate(-353.618 -151.602)"/>
      </g>
    </g>
    <path id="Trazado_899439" data-name="Trazado 899439" d="M9.04-6.96H6.4V-9.52H3.52v2.56H.88v2.72H3.52v2.56H6.4V-4.24H9.04Z" transform="translate(1268.051 2004.52)" fill="#ffa117"/>
    <path id="Trazado_899440" data-name="Trazado 899440" d="M9.04-6.96H6.4V-9.52H3.52v2.56H.88v2.72H3.52v2.56H6.4V-4.24H9.04Z" transform="translate(1268.051 2068.6)" fill="#ffa117"/>
    <path id="Trazado_899438" data-name="Trazado 899438" d="M5.424.16c2.976,0,5.088-1.888,5.088-4.544S8.4-8.912,5.424-8.912C2.464-8.912.336-7.04.336-4.384S2.464.16,5.424.16Zm0-2.816C4.624-2.656,4-3.248,4-4.384S4.624-6.1,5.424-6.1s1.424.576,1.424,1.712S6.224-2.656,5.424-2.656Z" transform="translate(1373.051 2034.84)" fill="#ffa117"/>
  </g>
</svg>
