<svg xmlns="http://www.w3.org/2000/svg" width="84.479" height="90.768" viewBox="0 0 84.479 90.768">
  <g id="Grupo_1107979" data-name="Grupo 1107979" transform="translate(-17.737)">
    <g id="Grupo_1107977" data-name="Grupo 1107977" transform="translate(19.067 1.33)">
      <g id="Grupo_1107975" data-name="Grupo 1107975">
        <g id="Grupo_1107967" data-name="Grupo 1107967">
          <g id="Grupo_1107966" data-name="Grupo 1107966">
            <g id="Grupo_1107962" data-name="Grupo 1107962" transform="translate(9.737)">
              <g id="Grupo_1107961" data-name="Grupo 1107961">
                <path id="Trazado_899447" data-name="Trazado 899447" d="M142.736,9.273V93.836a1.772,1.772,0,0,1-1.773,1.773H81.934a1.773,1.773,0,0,1-1.773-1.773V9.273A1.773,1.773,0,0,1,81.934,7.5h59.029A1.772,1.772,0,0,1,142.736,9.273Z" transform="translate(-80.161 -7.5)" fill="#f2eff2"/>
              </g>
            </g>
            <g id="Grupo_1107963" data-name="Grupo 1107963" transform="translate(9.737)">
              <path id="Trazado_899448" data-name="Trazado 899448" d="M153.236,271.5h-5.956l-6.45-6.45a.886.886,0,0,0-1.513.627V271.5h-9.093a10.734,10.734,0,0,0,.936-7.083c-1.534-5.555-7.009-9.994-14.686-7.873s-10.1,8.74-8.562,14.3c.995,3.6,5.078,6.609,8.567,7.557l.669,2.422a.968.968,0,0,0,1.191.675l8.8-2.431v7.149a.886.886,0,0,0,.886.886h25.211a.886.886,0,0,0,.886-.886V272.382a.886.886,0,0,0-.886-.887Zm-37.213,1.047a3.234,3.234,0,1,1,2.256-3.979A3.234,3.234,0,0,1,116.023,272.543Zm9.22-2.485a2.59,2.59,0,1,1,1.807-3.186A2.59,2.59,0,0,1,125.243,270.058Z" transform="translate(-102.632 -211.945)" fill="#e1dde1"/>
              <path id="Trazado_899449" data-name="Trazado 899449" d="M93.859,76.456v14.89a.887.887,0,0,1-.886.886h-8.44L80.161,96.6V75.57H92.973A.887.887,0,0,1,93.859,76.456Z" transform="translate(-80.161 -63.502)" fill="#e1dde1"/>
              <path id="Trazado_899450" data-name="Trazado 899450" d="M330.2,7.5h-7.1a1.773,1.773,0,0,1,1.773,1.773v17.62a6.677,6.677,0,0,1-4.033-2.146,1.3,1.3,0,0,0-2.259.862.524.524,0,0,0,0,.074,6.714,6.714,0,0,1-6.7,7.054c-.117,0-.232,0-.349-.009a1.3,1.3,0,0,0-1.365,1.308,1.264,1.264,0,0,0,.431.948,6.715,6.715,0,0,1,0,9.967,1.3,1.3,0,0,0,.86,2.259.524.524,0,0,0,.074,0,6.714,6.714,0,0,1,7.056,6.7c0,.117,0,.232-.007.349a1.293,1.293,0,0,0,1.3,1.365,1.262,1.262,0,0,0,.95-.431,6.678,6.678,0,0,1,4.033-2.146V93.836a1.773,1.773,0,0,1-1.773,1.773h7.1a1.773,1.773,0,0,0,1.773-1.773V9.273A1.773,1.773,0,0,0,330.2,7.5Z" transform="translate(-269.402 -7.5)" fill="#e1dde1"/>
            </g>
            <path id="Trazado_899451" data-name="Trazado 899451" d="M47.786,47.5H26.123a.887.887,0,0,0-.886.886v14.89a.887.887,0,0,0,.886.886h5.26v5.823a.886.886,0,0,0,1.513.627l6.45-6.45h8.44a.887.887,0,0,0,.886-.886V48.386a.887.887,0,0,0-.887-.886Z" transform="translate(-25.237 -40.409)" fill="#fdef63"/>
            <path id="Trazado_899452" data-name="Trazado 899452" d="M227.726,47.5H194.048a.887.887,0,0,0-.886.886v14.89a.887.887,0,0,0,.886.886h33.678a.887.887,0,0,0,.886-.886V48.386a.886.886,0,0,0-.886-.886Z" transform="translate(-163.392 -40.409)" fill="#7a6e79"/>
            <path id="Trazado_899453" data-name="Trazado 899453" d="M364.32,48.386v14.89a.887.887,0,0,1-.886.886h-5.322a.887.887,0,0,0,.886-.886V48.386a.887.887,0,0,0-.886-.886h5.322a.887.887,0,0,1,.886.886Z" transform="translate(-299.1 -40.409)" fill="#685e67"/>
            <path id="Trazado_899454" data-name="Trazado 899454" d="M128.621,48.386v14.89a.887.887,0,0,1-.886.886h-5.322a.887.887,0,0,0,.886-.886V48.386a.887.887,0,0,0-.886-.886h5.322a.887.887,0,0,1,.886.886Z" transform="translate(-105.186 -40.409)" fill="#f3d730"/>
            <g id="Grupo_1107965" data-name="Grupo 1107965" transform="translate(16.828 30.136)">
              <g id="Grupo_1107964" data-name="Grupo 1107964" transform="translate(0 0)">
                <path id="Trazado_899455" data-name="Trazado 899455" d="M168.553,178.376V204.44a.887.887,0,0,1-.886.886h-46.62a.887.887,0,0,1-.886-.886V178.376a.887.887,0,0,1,.886-.886h46.62A.887.887,0,0,1,168.553,178.376Z" transform="translate(-120.161 -177.49)" fill="#fb54b6"/>
              </g>
              <path id="Trazado_899456" data-name="Trazado 899456" d="M324,177.488H312.409a6.722,6.722,0,0,1-1.8,7.316,1.3,1.3,0,0,0,.86,2.259.522.522,0,0,0,.074,0,6.714,6.714,0,0,1,7.056,6.7c0,.117,0,.232-.007.349a1.279,1.279,0,0,0,.97,1.32v9.011a.887.887,0,0,1-.886.886H324a.887.887,0,0,0,.886-.886V178.374a.887.887,0,0,0-.886-.886Z" transform="translate(-276.494 -177.488)" fill="#fb33a8"/>
            </g>
          </g>
        </g>
        <g id="Grupo_1107969" data-name="Grupo 1107969" transform="translate(50.515 11.979)">
          <g id="Grupo_1107968" data-name="Grupo 1107968">
            <path id="Trazado_899457" data-name="Trazado 899457" d="M338.841,90.724a6.692,6.692,0,0,1,2.215-4.984,1.258,1.258,0,0,0,.43-.948,1.3,1.3,0,0,0-1.364-1.307c-.118.006-.233.008-.349.008a6.713,6.713,0,0,1-6.7-7.055c0-.024,0-.049,0-.073a1.3,1.3,0,0,0-2.257-.863,6.715,6.715,0,0,1-9.968,0,1.3,1.3,0,0,0-2.257.863c0,.024,0,.049,0,.073a6.713,6.713,0,0,1-6.7,7.055c-.116,0-.231,0-.349-.008a1.3,1.3,0,0,0-1.364,1.307,1.258,1.258,0,0,0,.43.948,6.715,6.715,0,0,1,0,9.968,1.3,1.3,0,0,0,.861,2.257c.024,0,.049,0,.073,0a6.713,6.713,0,0,1,7.057,6.7c0,.116,0,.231-.008.349a1.293,1.293,0,0,0,1.305,1.364,1.259,1.259,0,0,0,.95-.43,6.715,6.715,0,0,1,9.968,0,1.259,1.259,0,0,0,.95.43,1.293,1.293,0,0,0,1.305-1.364c-.006-.118-.008-.233-.008-.349a6.713,6.713,0,0,1,7.057-6.7c.024,0,.049,0,.073,0a1.3,1.3,0,0,0,.861-2.257A6.69,6.69,0,0,1,338.841,90.724Z" transform="translate(-310.181 -75.072)" fill="#fdef63"/>
            <path id="Trazado_899458" data-name="Trazado 899458" d="M417.787,95.708a1.3,1.3,0,0,1-.861,2.257c-.024,0-.048,0-.072,0a6.712,6.712,0,0,0-7.057,6.7c0,.115,0,.23.009.349a1.3,1.3,0,0,1-1.305,1.364,1.253,1.253,0,0,1-.95-.431,6.7,6.7,0,0,0-4.1-2.156,14.569,14.569,0,0,0-.006-26.133,6.676,6.676,0,0,0,4.1-2.153,1.294,1.294,0,0,1,2.255.861v.074a6.712,6.712,0,0,0,6.7,7.055c.115,0,.23,0,.349-.009a1.3,1.3,0,0,1,1.364,1.308,1.252,1.252,0,0,1-.432.948,6.718,6.718,0,0,0,0,9.969Z" transform="translate(-386.914 -75.071)" fill="#f3d730"/>
          </g>
        </g>
        <g id="Grupo_1107971" data-name="Grupo 1107971" transform="translate(16.837 43.436)">
          <path id="Trazado_899459" data-name="Trazado 899459" d="M120.212,253.4v35.809a.886.886,0,0,0,.886.886h28.534a.886.886,0,0,0,.833-1.188L137.5,253.095a.886.886,0,0,0-.833-.585H121.1A.886.886,0,0,0,120.212,253.4Z" transform="translate(-120.212 -252.51)" fill="#27e19d"/>
          <g id="Grupo_1107970" data-name="Grupo 1107970">
            <path id="Trazado_899460" data-name="Trazado 899460" d="M138.695,259.267c-2.651-2.7-6.726-4.113-11.742-2.727a12.442,12.442,0,0,0-6.742,4.313V274.1a14.273,14.273,0,0,0,6.746,4.288l.669,2.422a.968.968,0,0,0,1.191.675l9.341-2.58a.968.968,0,0,0,.675-1.191l-.669-2.422a14.211,14.211,0,0,0,3.636-7.45ZM126.5,272.543a3.234,3.234,0,1,1,2.256-3.979A3.234,3.234,0,0,1,126.5,272.543Zm9.22-2.485a2.59,2.59,0,1,1,1.807-3.186A2.59,2.59,0,0,1,135.722,270.058Z" transform="translate(-120.211 -255.382)" fill="#26d192"/>
            <path id="Trazado_899461" data-name="Trazado 899461" d="M223.9,343.408h-4.618a.887.887,0,0,0-.886.886V358.12a.886.886,0,0,0,.886.886h10.266Z" transform="translate(-200.992 -327.294)" fill="#26d192"/>
            <path id="Trazado_899462" data-name="Trazado 899462" d="M201.3,290.092H195.98a.886.886,0,0,0,.833-1.188L183.848,253.1a.888.888,0,0,0-.833-.585h5.322a.888.888,0,0,1,.833.585L202.135,288.9A.886.886,0,0,1,201.3,290.092Z" transform="translate(-171.881 -252.51)" fill="#26d192"/>
          </g>
        </g>
        <g id="Grupo_1107974" data-name="Grupo 1107974" transform="translate(34.244 48.485)">
          <g id="Grupo_1107973" data-name="Grupo 1107973">
            <path id="Trazado_899463" data-name="Trazado 899463" d="M244.5,303.3H219.285a.886.886,0,0,1-.886-.886V288.588a.887.887,0,0,1,.886-.886h11.291v-5.823a.887.887,0,0,1,1.513-.627l6.45,6.45H244.5a.886.886,0,0,1,.886.886v13.825A.887.887,0,0,1,244.5,303.3Z" transform="translate(-218.399 -280.99)" fill="#3ad1e0"/>
            <g id="Grupo_1107972" data-name="Grupo 1107972" transform="translate(0 6.711)">
              <path id="Trazado_899464" data-name="Trazado 899464" d="M219.615,329.423,218.945,327a14.211,14.211,0,0,0,3.636-7.45l-.255-.705h-3.042a.886.886,0,0,0-.886.886v11.03l.541-.149A.968.968,0,0,0,219.615,329.423Z" transform="translate(-218.398 -318.847)" fill="#20bfd5"/>
              <path id="Trazado_899465" data-name="Trazado 899465" d="M341.8,333.559V319.733a.887.887,0,0,0-.886-.886h-5.322a.887.887,0,0,1,.886.886v13.825a.887.887,0,0,1-.886.886h5.322A.887.887,0,0,0,341.8,333.559Z" transform="translate(-314.812 -318.847)" fill="#20bfd5"/>
            </g>
          </g>
        </g>
      </g>
      <g id="Grupo_1107976" data-name="Grupo 1107976" transform="translate(14.579 39.575)">
        <path id="Trazado_899466" data-name="Trazado 899466" d="M116.475,231.277c-7.677,2.121-10.1,8.74-8.562,14.3.995,3.6,5.078,6.609,8.567,7.557l.669,2.422a.968.968,0,0,0,1.191.675l9.341-2.58a.968.968,0,0,0,.675-1.191l-.669-2.422c2.507-2.6,4.468-7.281,3.473-10.883C129.626,233.595,124.152,229.156,116.475,231.277Zm-.45,16a3.234,3.234,0,1,1,2.256-3.979A3.234,3.234,0,0,1,116.024,247.28Zm9.22-2.485a2.59,2.59,0,1,1,1.807-3.186A2.59,2.59,0,0,1,125.244,244.795Z" transform="translate(-107.475 -230.737)" fill="#f2eff2"/>
        <path id="Trazado_899467" data-name="Trazado 899467" d="M155.84,252.453a.968.968,0,0,1-.675,1.191l-5.907,1.633a.966.966,0,0,0,.422-1.08l-.668-2.422a14.309,14.309,0,0,0,3.554-6.944c.055-.011.108-.025.163-.039a2.59,2.59,0,0,0-.64-5.086,11.092,11.092,0,0,0-11.208-7.206,14.549,14.549,0,0,1,3.078-1.225c7.676-2.12,13.151,2.319,14.686,7.873.995,3.6-.966,8.279-3.473,10.883Z" transform="translate(-134.959 -230.736)" fill="#e1dde1"/>
      </g>
    </g>
    <g id="Grupo_1107978" data-name="Grupo 1107978" transform="translate(17.737 0)">
      <path id="Trazado_899468" data-name="Trazado 899468" d="M231.8,100.6l-9.4-.02h0a1.33,1.33,0,0,0,0,2.659l9.4.02h0a1.33,1.33,0,0,0,0-2.659Z" transform="translate(-185.024 -82.746)"/>
      <path id="Trazado_899469" data-name="Trazado 899469" d="M222.4,75.964h4.963a1.33,1.33,0,1,0,0-2.659H222.4a1.33,1.33,0,1,0,0,2.659Z" transform="translate(-185.024 -60.309)"/>
      <path id="Trazado_899470" data-name="Trazado 899470" d="M101.347,32.957a5.385,5.385,0,0,1,0-7.991,2.576,2.576,0,0,0,.872-1.937,2.669,2.669,0,0,0-.825-1.925,2.591,2.591,0,0,0-1.937-.71c-.095,0-.188.006-.281.006A5.383,5.383,0,0,1,93.8,14.754c0-.051,0-.1,0-.152a2.6,2.6,0,0,0-1.1-2.128V3.1a3.106,3.106,0,0,0-3.1-3.1H30.577a3.106,3.106,0,0,0-3.1,3.1V7.091H19.953a2.218,2.218,0,0,0-2.216,2.216v4.525a1.33,1.33,0,1,0,2.659,0V9.75H41.173v14h-8a1.33,1.33,0,0,0-.94.389l-5.693,5.693V25.083a1.33,1.33,0,0,0-1.33-1.33H20.4V19.711a1.33,1.33,0,1,0-2.659,0V24.2a2.218,2.218,0,0,0,2.216,2.216h3.93v4.493a2.214,2.214,0,0,0,3.591,1.736V87.665a3.106,3.106,0,0,0,3.1,3.1H89.607a3.106,3.106,0,0,0,3.1-3.1v-12.5a1.33,1.33,0,1,0-2.659,0v12.5a.444.444,0,0,1-.443.443H30.577a.444.444,0,0,1-.443-.443V30.006l3.593-3.593h7.889A2.218,2.218,0,0,0,43.832,24.2V9.307a2.218,2.218,0,0,0-2.216-2.216H30.134V3.1a.444.444,0,0,1,.443-.443H89.606a.444.444,0,0,1,.443.443v9.133a2.645,2.645,0,0,0-.819.612,5.39,5.39,0,0,1-3.614,1.761v-5.3A2.218,2.218,0,0,0,83.4,7.091H49.723a2.218,2.218,0,0,0-2.216,2.216V24.2a2.218,2.218,0,0,0,2.216,2.216H70.254a5.349,5.349,0,0,1,.512,3.722H64.189a1.33,1.33,0,1,0,0,2.659h5.1c-.056.055-.112.109-.17.162a2.625,2.625,0,0,0,1.751,4.575c.051,0,.1,0,.153,0A5.384,5.384,0,0,1,76.674,42.9c0,.093,0,.186-.006.28a2.588,2.588,0,0,0,.706,1.936,2.667,2.667,0,0,0,1.927.827,2.578,2.578,0,0,0,1.937-.869,5.373,5.373,0,0,1,1.72-1.269V57.973H81.624v-.561A2.218,2.218,0,0,0,79.408,55.2H74l-6.06-6.061A2.216,2.216,0,0,0,64.159,50.7V55.2h-5.87a10.962,10.962,0,0,0,.325-6.231,12.816,12.816,0,0,0-5.628-7.6,13.268,13.268,0,0,0-10.693-1.205A14.9,14.9,0,0,0,37.225,42.6V32.8H58.31a1.33,1.33,0,1,0,0-2.659H36.781a2.218,2.218,0,0,0-2.216,2.216V45.344A12.79,12.79,0,0,0,32.8,56.095a9.72,9.72,0,0,0,1.773,3.392V81.461a2.218,2.218,0,0,0,2.216,2.216H65.324a2.216,2.216,0,0,0,2.084-2.971l-2.626-7.253H79.408a2.218,2.218,0,0,0,2.216-2.216v-10.6H83.4a2.218,2.218,0,0,0,2.216-2.216v-15.1a5.388,5.388,0,0,1,3.612,1.759,2.636,2.636,0,0,0,.82.616v23.6a1.33,1.33,0,0,0,2.659,0V45.448a2.628,2.628,0,0,0,.386-.333A2.587,2.587,0,0,0,93.8,43.18c0-.095-.006-.188-.006-.281a5.384,5.384,0,0,1,5.647-5.372c.051,0,.1,0,.153,0a2.625,2.625,0,0,0,1.751-4.574ZM43,42.727a13,13,0,0,1,3.467-.5,9.826,9.826,0,0,1,9.583,7.441c.851,3.081-.933,7.3-3.15,9.607a1.33,1.33,0,0,0-.324,1.276l.573,2.073L44.5,65.017l-.573-2.073A1.33,1.33,0,0,0,43,62.014c-3.084-.838-6.783-3.547-7.634-6.628C34.061,50.665,35.894,44.69,43,42.727ZM64.692,81.017H37.233V62.05a15.663,15.663,0,0,0,4.33,2.306l.474,1.717a2.3,2.3,0,0,0,2.827,1.6l7.117-1.966v5.527A2.218,2.218,0,0,0,54.2,73.453h7.757ZM78.965,70.794H54.64V64.927a2.3,2.3,0,0,0,1.168-2.658l-.474-1.717a15.19,15.19,0,0,0,1.822-2.7h8.332a1.33,1.33,0,0,0,1.33-1.33V51.772l5.693,5.693a1.33,1.33,0,0,0,.94.389h5.513V70.794ZM50.166,9.75H82.958v4.366a5.378,5.378,0,0,1-1.721-1.27A2.626,2.626,0,0,0,76.663,14.6c0,.051,0,.1,0,.152A5.383,5.383,0,0,1,71.3,20.4c-.093,0-.186,0-.283-.006a2.583,2.583,0,0,0-1.935.71,2.669,2.669,0,0,0-.825,1.925,2.6,2.6,0,0,0,.105.726H50.166ZM79.322,14.6a.007.007,0,0,1,0,0c0-.011,0-.022,0-.033C79.321,14.582,79.322,14.6,79.322,14.6ZM70.837,34.875l.033,0h0l-.034,0Zm28.658-.007a7.961,7.961,0,0,0-5.855,2.205,8.074,8.074,0,0,0-2.5,5.827c0,.106,0,.211.005.322a8.045,8.045,0,0,0-11.814,0c0-.108.006-.215.006-.322a8.074,8.074,0,0,0-2.5-5.827,7.965,7.965,0,0,0-5.855-2.205,8.045,8.045,0,0,0,0-11.814c.108,0,.215.005.322.005a8.074,8.074,0,0,0,5.827-2.5,7.964,7.964,0,0,0,2.2-5.855,8.045,8.045,0,0,0,11.814,0,7.963,7.963,0,0,0,2.2,5.855,8.074,8.074,0,0,0,5.827,2.5c.106,0,.212,0,.322-.005a8.045,8.045,0,0,0,0,11.814Z" transform="translate(-17.737 0)"/>
      <path id="Trazado_899471" data-name="Trazado 899471" d="M392.3,122.008a1.33,1.33,0,0,0-1.33,1.33V129.5a1.33,1.33,0,1,0,2.659,0v-6.162a1.33,1.33,0,0,0-1.33-1.33Z" transform="translate(-324.805 -100.378)"/>
      <path id="Trazado_899472" data-name="Trazado 899472" d="M392.3,187.266a1.33,1.33,0,0,0-1.33,1.33v.434a1.33,1.33,0,1,0,2.659,0V188.6A1.33,1.33,0,0,0,392.3,187.266Z" transform="translate(-324.805 -154.067)"/>
      <path id="Trazado_899473" data-name="Trazado 899473" d="M109.925,88.291v-.018a1.33,1.33,0,0,0-2.659,0v.018a1.33,1.33,0,1,0,2.659,0Z" transform="translate(-91.394 -71.53)"/>
      <path id="Trazado_899474" data-name="Trazado 899474" d="M86.494,88.291v-.018a1.33,1.33,0,0,0-2.659,0v.018a1.33,1.33,0,1,0,2.659,0Z" transform="translate(-72.117 -71.53)"/>
      <path id="Trazado_899475" data-name="Trazado 899475" d="M63.063,88.291v-.018a1.33,1.33,0,0,0-2.659,0v.018a1.33,1.33,0,1,0,2.659,0Z" transform="translate(-52.84 -71.53)"/>
      <path id="Trazado_899476" data-name="Trazado 899476" d="M149.634,427h-4.963a1.33,1.33,0,1,0,0,2.659h4.963a1.33,1.33,0,1,0,0-2.659Z" transform="translate(-121.075 -351.302)"/>
      <path id="Trazado_899477" data-name="Trazado 899477" d="M361.787,433.026v.018a1.33,1.33,0,1,0,2.659,0v-.018a1.33,1.33,0,1,0-2.659,0Z" transform="translate(-300.793 -355.165)"/>
      <path id="Trazado_899478" data-name="Trazado 899478" d="M338.356,433.026v.018a1.33,1.33,0,1,0,2.659,0v-.018a1.33,1.33,0,1,0-2.659,0Z" transform="translate(-281.516 -355.165)"/>
      <path id="Trazado_899479" data-name="Trazado 899479" d="M316.255,431.7h-.006a1.33,1.33,0,0,0-1.323,1.336v.018a1.33,1.33,0,0,0,1.329,1.323h.006a1.33,1.33,0,0,0,1.323-1.336v-.018A1.329,1.329,0,0,0,316.255,431.7Z" transform="translate(-262.239 -355.165)"/>
      <path id="Trazado_899480" data-name="Trazado 899480" d="M266.816,368.94l-11.821-.02h0a1.33,1.33,0,0,0,0,2.659l11.821.02h0a1.33,1.33,0,0,0,0-2.659Z" transform="translate(-211.838 -303.518)"/>
      <path id="Trazado_899481" data-name="Trazado 899481" d="M254.993,341.649a1.33,1.33,0,1,0,0,2.659h11.821a1.33,1.33,0,1,0,0-2.659Z" transform="translate(-211.838 -281.081)"/>
      <path id="Trazado_899482" data-name="Trazado 899482" d="M127.41,289.249a4.537,4.537,0,0,0,2.244.6,4.6,4.6,0,0,0,1.222-.167,4.564,4.564,0,1,0-3.467-.429Zm1.744-5.806a1.893,1.893,0,0,1,1.447.179,1.9,1.9,0,1,1-1.447-.179Z" transform="translate(-106.064 -230.948)"/>
      <path id="Trazado_899483" data-name="Trazado 899483" d="M185.628,281.68a3.92,3.92,0,1,0-3.779-2.876A3.917,3.917,0,0,0,185.628,281.68Zm-.337-5.134a1.26,1.26,0,1,1-.879,1.55A1.252,1.252,0,0,1,185.291,276.545Z" transform="translate(-152.638 -225.293)"/>
    </g>
  </g>
</svg>
