<svg xmlns="http://www.w3.org/2000/svg" width="59.457" height="74.238" viewBox="0 0 59.457 74.238">
  <g id="Grupo_1107844" data-name="Grupo 1107844" transform="translate(-50.97)">
    <g id="Grupo_1107846" data-name="Grupo 1107846" transform="translate(52.057 1.087)">
      <path id="Trazado_897551" data-name="Trazado 897551" d="M115.748,11.744V75.319a4.244,4.244,0,0,1-4.244,4.244H62.712a4.245,4.245,0,0,1-4.246-4.244V11.744A4.245,4.245,0,0,1,62.712,7.5H111.5a4.244,4.244,0,0,1,4.244,4.244Z" transform="translate(-58.466 -7.5)" fill="#da4a54"/>
      <path id="Trazado_897552" data-name="Trazado 897552" d="M115.748,11.744V27.217H58.466V11.744A4.245,4.245,0,0,1,62.712,7.5H111.5A4.244,4.244,0,0,1,115.748,11.744Z" transform="translate(-58.466 -7.5)" fill="#ffd064"/>
      <g id="Grupo_1107845" data-name="Grupo 1107845" transform="translate(3.665 29.328)">
        <path id="Trazado_897553" data-name="Trazado 897553" d="M122.162,325.564l-23.588,6.622a3.562,3.562,0,0,1-1.926-6.859l23.588-6.622a3.562,3.562,0,1,1,1.926,6.859Z" transform="translate(-92.554 -302.795)" fill="#d2a572"/>
        <path id="Trazado_897554" data-name="Trazado 897554" d="M135.081,290.725a10.314,10.314,0,0,1-12.717-7.142l-2.641-9.407a10.313,10.313,0,1,1,19.859-5.575l2.641,9.407A10.313,10.313,0,0,1,135.081,290.725Z" transform="translate(-114.176 -253.634)" fill="#eccda0"/>
        <path id="Trazado_897555" data-name="Trazado 897555" d="M137.539,289.689a10.323,10.323,0,0,1-15.173-6.1l-2.641-9.406a10.323,10.323,0,0,1,9.783-13.1,10.319,10.319,0,0,0-4.687,11.673l2.641,9.406A10.319,10.319,0,0,0,137.539,289.689Z" transform="translate(-114.178 -253.643)" fill="#eab57f"/>
        <path id="Trazado_897556" data-name="Trazado 897556" d="M87.377,264.23l.872-.245a4.976,4.976,0,0,1,6.136,3.446l.01.037A4.976,4.976,0,0,1,90.95,273.6l-.872.245a4.976,4.976,0,0,1-6.136-3.446l-.01-.037a4.976,4.976,0,0,1,3.446-6.136Z" transform="translate(-83.745 -255.965)" fill="#5e6b75"/>
        <path id="Trazado_897557" data-name="Trazado 897557" d="M92.181,273.084a4.895,4.895,0,0,1-1.23.534l-.872.245a4.976,4.976,0,0,1-6.137-3.445l-.01-.037a4.976,4.976,0,0,1,3.447-6.136l.872-.245a4.889,4.889,0,0,1,1.328-.184,4.972,4.972,0,0,0-2.217,5.6l.01.037A4.972,4.972,0,0,0,92.181,273.084Z" transform="translate(-83.746 -255.979)" fill="#4d5961"/>
        <path id="Trazado_897558" data-name="Trazado 897558" d="M147.106,220.074a7.153,7.153,0,0,0,8.82,4.953,11.634,11.634,0,0,0,8.056-14.345l-.256-.913-13.111,3.681A5.175,5.175,0,0,0,147.106,220.074Z" transform="translate(-137.688 -209.769)" fill="#5e6b75"/>
        <g id="Grupo_1107844-2" data-name="Grupo 1107844" transform="translate(9.148 2.564)">
          <path id="Trazado_897559" data-name="Trazado 897559" d="M158.1,239.294a11.688,11.688,0,0,1-2.173.851,7.151,7.151,0,0,1-8.819-4.953,5.175,5.175,0,0,1,3.51-6.623l3.982-1.118a5.175,5.175,0,0,0-3.51,6.623A7.156,7.156,0,0,0,158.1,239.294Z" transform="translate(-146.838 -227.45)" fill="#4d5961"/>
          <path id="Trazado_897560" data-name="Trazado 897560" d="M184.819,378.982c-.7-2.5-2.029.57-4.532,1.272s-5.235-1.231-4.532,1.272a4.708,4.708,0,1,0,9.065-2.545Z" transform="translate(-171.465 -356.185)" fill="#4d5961"/>
        </g>
      </g>
      <path id="Trazado_897561" data-name="Trazado 897561" d="M311.1,174.75h-9.054a5.117,5.117,0,0,0-5.117,5.117v6.583a5.117,5.117,0,0,0,5.117,5.117H303.4a9.616,9.616,0,0,1,.618,8.058c5.646-1.436,5.479-5.569,4.8-8.058H311.1a5.117,5.117,0,0,0,5.117-5.117v-6.583A5.117,5.117,0,0,0,311.1,174.75Z" transform="translate(-262.357 -150.499)" fill="#f7f9f9"/>
      <circle id="Elipse_11509" data-name="Elipse 11509" cx="7.45" cy="7.45" r="7.45" transform="translate(38.335 53.202)" fill="#5986cb"/>
    </g>
    <g id="Grupo_1107847" data-name="Grupo 1107847" transform="translate(50.97 0)">
      <path id="Trazado_897562" data-name="Trazado 897562" d="M105.1,0H56.3A5.338,5.338,0,0,0,50.97,5.332V68.906A5.338,5.338,0,0,0,56.3,74.238H105.1a5.338,5.338,0,0,0,5.332-5.332V5.332A5.338,5.338,0,0,0,105.1,0ZM56.3,2.175H105.1a3.161,3.161,0,0,1,3.157,3.157V19.716H53.145V5.332A3.161,3.161,0,0,1,56.3,2.175ZM105.1,72.063H56.3a3.161,3.161,0,0,1-3.157-3.157V21.891h55.107V68.906A3.161,3.161,0,0,1,105.1,72.063Z" transform="translate(-50.97 0)"/>
      <path id="Trazado_897563" data-name="Trazado 897563" d="M372.244,56.609a4.442,4.442,0,0,0,3.519-1.592,1.088,1.088,0,0,0-1.667-1.4,2.27,2.27,0,0,1-1.852.814,3.175,3.175,0,1,1,1.774-5.808,1.087,1.087,0,1,0,1.217-1.8,5.35,5.35,0,1,0-2.992,9.786Z" transform="translate(-321.086 -39.252)"/>
      <path id="Trazado_897564" data-name="Trazado 897564" d="M85.1,56.612a4.443,4.443,0,0,0,3.518-1.592,1.087,1.087,0,0,0-1.666-1.4,2.271,2.271,0,0,1-1.852.815,3.175,3.175,0,1,1,1.774-5.808,1.087,1.087,0,1,0,1.217-1.8A5.35,5.35,0,1,0,85.1,56.612Z" transform="translate(-75.577 -39.255)"/>
      <path id="Trazado_897565" data-name="Trazado 897565" d="M153.02,56.611a5.35,5.35,0,1,0-5.35-5.35A5.356,5.356,0,0,0,153.02,56.611Zm0-8.525a3.175,3.175,0,1,1-3.175,3.175,3.178,3.178,0,0,1,3.175-3.175Z" transform="translate(-133.649 -39.254)"/>
      <path id="Trazado_897566" data-name="Trazado 897566" d="M232.624,56.3a1.087,1.087,0,0,0,1.087-1.087V50.8s0-.009,0-.014c0-1.773.779-2.918,1.985-2.918.6,0,1.423,0,1.5,2.507,0,.08,0,.6,0,.6v4.244a1.087,1.087,0,1,0,2.175,0V51.381l0-1.178c0-1.524.613-2.3,1.821-2.3.8,0,1.035.251,1.114.333.253.265.54.926.466,2.567,0,.016,0,4.409,0,4.409a1.087,1.087,0,1,0,2.175,0V50.88c.086-1.974-.254-3.291-1.068-4.143a3.555,3.555,0,0,0-2.686-1.005,3.8,3.8,0,0,0-2.815,1.118,3.224,3.224,0,0,0-2.683-1.162,3.8,3.8,0,0,0-2.052.579,1.087,1.087,0,0,0-2.108.373v8.577a1.087,1.087,0,0,0,1.087,1.087Z" transform="translate(-205.355 -38.947)"/>
      <path id="Trazado_897567" data-name="Trazado 897567" d="M340.607,54.677a1.087,1.087,0,0,0,1.087-1.087V44.736a1.087,1.087,0,0,0-2.175,0v8.853A1.087,1.087,0,0,0,340.607,54.677Z" transform="translate(-297.681 -37.32)"/>
      <path id="Trazado_897568" data-name="Trazado 897568" d="M340.607,26.047a1.087,1.087,0,0,0,1.087-1.087v-.072a1.087,1.087,0,0,0-2.175,0v.072A1.087,1.087,0,0,0,340.607,26.047Z" transform="translate(-297.681 -20.349)"/>
      <path id="Trazado_897569" data-name="Trazado 897569" d="M108.256,218.644a4.619,4.619,0,0,0-3.533-.422l-.817.229-1.055-3.759a12.654,12.654,0,0,0,1.823-10.715l-.255-.912a1.087,1.087,0,0,0-1.341-.754l-7.035,1.975a1.088,1.088,0,0,0,.588,2.094l5.987-1.68a10.532,10.532,0,0,1-7.34,12.87,6.074,6.074,0,0,1-7.479-4.2c0-.017-.01-.034-.016-.051a4.088,4.088,0,0,1,2.771-5.233l1.889-.531a1.088,1.088,0,0,0-.588-2.094l-1.889.531a6.209,6.209,0,0,0-3.841,3.1,6.316,6.316,0,0,0-.566,1.5,6.033,6.033,0,0,0-4.013-.258l-.873.245a6.07,6.07,0,0,0-4.2,7.475l.011.038a6.071,6.071,0,0,0,4.854,4.344l.612,2.18-.816.229a4.649,4.649,0,1,0,2.513,8.952l.816-.229.01.035a11.418,11.418,0,0,0,10.961,8.326,11.457,11.457,0,0,0,3.1-.429,11.4,11.4,0,0,0,7.9-14.061l-.01-.035.817-.229a4.649,4.649,0,0,0,1.02-8.53ZM78.578,217.5l-.011-.038a3.893,3.893,0,0,1,2.692-4.794l.873-.245a3.863,3.863,0,0,1,3.343.607,6.376,6.376,0,0,0,.234.95,8.2,8.2,0,0,0,1.342,2.7,3.866,3.866,0,0,1-2.808,3.266l-.873.245a3.892,3.892,0,0,1-4.794-2.691Zm4.482,14.2a2.474,2.474,0,1,1-1.337-4.764l.816-.229,1.337,4.764Zm20.437,3.337a9.227,9.227,0,0,1-16.929-2.025l-2.985-10.632c.126-.027.252-.057.378-.092l.873-.245a6.035,6.035,0,0,0,4.01-3.619,8.212,8.212,0,0,0,7.022,1.239,12.669,12.669,0,0,0,5.281-3l3.189,11.359A9.168,9.168,0,0,1,103.5,235.039Zm4.642-11.13a2.459,2.459,0,0,1-1.49,1.17l-.817.229-1.337-4.764.817-.229a2.475,2.475,0,0,1,2.827,3.593Z" transform="translate(-72.582 -172.943)"/>
      <path id="Trazado_897570" data-name="Trazado 897570" d="M169.143,342.391a1.088,1.088,0,0,0,1.047-1.382L169.627,339a1.087,1.087,0,0,0-2.094.588l.563,2.006A1.088,1.088,0,0,0,169.143,342.391Z" transform="translate(-150.597 -289.171)"/>
      <path id="Trazado_897571" data-name="Trazado 897571" d="M203.834,331.566a1.087,1.087,0,1,0,2.094-.588l-.563-2.006a1.087,1.087,0,1,0-2.094.588Z" transform="translate(-181.153 -280.594)"/>
      <path id="Trazado_897572" data-name="Trazado 897572" d="M178.127,370.575c-.937-.3-1.727.336-2.492.95a4.487,4.487,0,0,1-4.477,1.257c-.972-.127-1.978-.259-2.622.485a2.23,2.23,0,0,0-.249,2.125,5.8,5.8,0,0,0,5.571,4.231,5.8,5.8,0,0,0,5.588-7.364A2.231,2.231,0,0,0,178.127,370.575Zm-3.282,6.737a3.62,3.62,0,0,1-4.442-2.431c.157.017.327.039.473.058A6.545,6.545,0,0,0,177,373.22c.115-.092.248-.2.373-.3a3.625,3.625,0,0,1-2.527,4.387Z" transform="translate(-151.144 -316.777)"/>
      <path id="Trazado_897573" data-name="Trazado 897573" d="M304.692,167.25h-9.053a6.211,6.211,0,0,0-6.2,6.2v6.583a6.211,6.211,0,0,0,6.2,6.2h.679a8.422,8.422,0,0,1,.3,6.526,1.087,1.087,0,0,0,1.26,1.5,7.773,7.773,0,0,0,5.095-3.408,7.1,7.1,0,0,0,.77-4.616h.954a6.211,6.211,0,0,0,6.2-6.2v-6.583A6.212,6.212,0,0,0,304.692,167.25Zm4.029,12.788a4.034,4.034,0,0,1-4.029,4.029H302.4a1.087,1.087,0,0,0-1.049,1.374,5.743,5.743,0,0,1-.267,4.322,4.548,4.548,0,0,1-1.909,1.717,10.828,10.828,0,0,0-1.238-6.848,1.087,1.087,0,0,0-.954-.566h-1.349a4.034,4.034,0,0,1-4.029-4.029v-6.583a4.034,4.034,0,0,1,4.029-4.029h9.053a4.034,4.034,0,0,1,4.029,4.029Z" transform="translate(-254.857 -142.999)"/>
      <path id="Trazado_897574" data-name="Trazado 897574" d="M336.1,208.45H326.073a1.087,1.087,0,1,0,0,2.175H336.1a1.087,1.087,0,1,0,0-2.175Z" transform="translate(-285.254 -178.225)"/>
      <path id="Trazado_897575" data-name="Trazado 897575" d="M332.244,240.375h-6.172a1.087,1.087,0,1,0,0,2.175h6.172a1.087,1.087,0,0,0,0-2.175Z" transform="translate(-285.254 -205.521)"/>
      <path id="Trazado_897576" data-name="Trazado 897576" d="M325.81,367.136a8.539,8.539,0,1,0,1.423,16.167,1.088,1.088,0,0,0-.855-2,6.348,6.348,0,1,1,2.832-2.373,1.087,1.087,0,0,0,1.821,1.189,8.538,8.538,0,0,0-5.22-12.984Z" transform="translate(-277.01 -313.713)"/>
      <path id="Trazado_897577" data-name="Trazado 897577" d="M367.417,398.5l1.078-4.65a1.088,1.088,0,0,0-2.119-.491l-1.078,4.65a1.088,1.088,0,1,0,2.119.491Z" transform="translate(-319.697 -335.602)"/>
      <path id="Trazado_897578" data-name="Trazado 897578" d="M360.793,444.444l-.016.071a1.087,1.087,0,1,0,2.118.493l.016-.071a1.087,1.087,0,1,0-2.118-.493Z" transform="translate(-315.832 -379.281)"/>
    </g>
  </g>
</svg>
